<svg width="92" height="92" viewBox="0 0 92 92" fill="none" xmlns="http://www.w3.org/2000/svg">
<circle cx="46" cy="46" r="46" fill="#FFE9ED"/>
<circle cx="52" cy="46" r="28" fill="white"/>
<path d="M47 12C28.2526 12 13 27.2526 13 46C13 64.7474 28.2526 80 47 80C65.7474 80 81 64.7474 81 46C81 27.2526 65.7474 12 47 12ZM59.3103 54.6128C59.5634 54.8532 59.7658 55.1419 59.9055 55.4618C60.0453 55.7817 60.1196 56.1263 60.1241 56.4754C60.1285 56.8245 60.0631 57.1709 59.9315 57.4943C59.8 57.8176 59.6051 58.1114 59.3582 58.3582C59.1114 58.6051 58.8176 58.8 58.4943 58.9315C58.1709 59.0631 57.8245 59.1285 57.4754 59.1241C57.1263 59.1196 56.7817 59.0453 56.4618 58.9055C56.1419 58.7658 55.8532 58.5634 55.6128 58.3103L47 49.6991L38.3872 58.3103C37.8927 58.7801 37.2343 59.0381 36.5523 59.0294C35.8703 59.0206 35.2187 58.7458 34.7365 58.2635C34.2542 57.7813 33.9794 57.1297 33.9706 56.4477C33.9619 55.7657 34.2199 55.1073 34.6897 54.6128L43.3009 46L34.6897 37.3872C34.2199 36.8927 33.9619 36.2343 33.9706 35.5523C33.9794 34.8703 34.2542 34.2187 34.7365 33.7365C35.2187 33.2542 35.8703 32.9794 36.5523 32.9706C37.2343 32.9619 37.8927 33.2199 38.3872 33.6897L47 42.3009L55.6128 33.6897C56.1073 33.2199 56.7657 32.9619 57.4477 32.9706C58.1297 32.9794 58.7813 33.2542 59.2635 33.7365C59.7458 34.2187 60.0206 34.8703 60.0294 35.5523C60.0381 36.2343 59.7801 36.8927 59.3103 37.3872L50.6991 46L59.3103 54.6128Z" fill="#EB5757"/>
</svg>
