<svg width="21" height="20" viewBox="0 0 21 20" fill="none" xmlns="http://www.w3.org/2000/svg">
<path d="M11.7558 7.48071L19.153 8.95009C19.7492 9.07604 20.1522 9.57982 20.1522 10.176V18.7403C20.1522 19.4373 19.5896 19.9998 18.8927 19.9998H11.3359C11.571 19.9998 11.7558 19.8151 11.7558 19.58V19.1602H18.8927C19.1194 19.1602 19.3126 18.9754 19.3126 18.7403V10.176C19.3126 9.98285 19.1782 9.80653 18.9851 9.76455L11.7558 8.33715V7.48071Z" fill="#31406F"/>
<path d="M16.3725 11.6034C16.6076 11.6034 16.7924 11.7881 16.7924 12.0232C16.7924 12.2583 16.6076 12.443 16.3725 12.443H14.6933C14.4582 12.443 14.2734 12.2583 14.2734 12.0232C14.2734 11.7881 14.4582 11.6034 14.6933 11.6034H16.3725Z" fill="#31406F"/>
<path d="M16.3725 14.1222C16.6076 14.1222 16.7924 14.3069 16.7924 14.542C16.7924 14.7771 16.6076 14.9618 16.3725 14.9618H14.6933C14.4582 14.9618 14.2734 14.7771 14.2734 14.542C14.2734 14.3069 14.4582 14.1222 14.6933 14.1222H16.3725Z" fill="#31406F"/>
<path d="M16.3725 16.6412C16.6076 16.6412 16.7924 16.826 16.7924 17.0611C16.7924 17.2962 16.6076 17.4809 16.3725 17.4809H14.6933C14.4582 17.4809 14.2734 17.2962 14.2734 17.0611C14.2734 16.826 14.4582 16.6412 14.6933 16.6412H16.3725Z" fill="#31406F"/>
<path d="M11.7547 19.58C11.7547 19.8151 11.57 19.9998 11.3349 19.9998C11.0998 19.9998 10.915 19.8151 10.915 19.58V19.1602V7.82497C10.915 7.69902 10.9738 7.58147 11.0662 7.49751C11.1669 7.42194 11.2929 7.38835 11.4188 7.41354L11.7547 7.48071V8.33715V19.1602V19.58Z" fill="#31406F"/>
<path d="M10.9163 19.1604V19.5802C10.9163 19.8153 11.101 20 11.3361 20H7.97754C8.21264 20 8.39736 19.8153 8.39736 19.5802V19.1604H10.9163Z" fill="#31406F"/>
<path d="M8.81688 4.04663C9.05199 4.04663 9.23671 4.23135 9.23671 4.46645C9.23671 4.70155 9.05199 4.88628 8.81688 4.88628H7.1376C6.9025 4.88628 6.71777 4.70155 6.71777 4.46645C6.71777 4.23135 6.9025 4.04663 7.1376 4.04663H8.81688Z" fill="#31406F"/>
<path d="M9.23671 6.98537C9.23671 7.22047 9.05199 7.4052 8.81688 7.4052H7.1376C6.9025 7.4052 6.71777 7.22047 6.71777 6.98537C6.71777 6.75027 6.9025 6.56555 7.1376 6.56555H8.81688C9.05199 6.56555 9.23671 6.75027 9.23671 6.98537Z" fill="#31406F"/>
<path d="M8.81688 9.08435C9.05199 9.08435 9.23671 9.26907 9.23671 9.50417C9.23671 9.73927 9.05199 9.924 8.81688 9.924H7.1376C6.9025 9.924 6.71777 9.73927 6.71777 9.50417C6.71777 9.26907 6.9025 9.08435 7.1376 9.08435H8.81688Z" fill="#31406F"/>
<path d="M8.81688 11.6034C9.05199 11.6034 9.23671 11.7881 9.23671 12.0232C9.23671 12.2583 9.05199 12.443 8.81688 12.443H7.1376C6.9025 12.443 6.71777 12.2583 6.71777 12.0232C6.71777 11.7881 6.9025 11.6034 7.1376 11.6034H8.81688Z" fill="#31406F"/>
<path d="M5.03847 12.0232C5.03847 12.2583 4.85374 12.443 4.61864 12.443H2.93935C2.70425 12.443 2.51953 12.2583 2.51953 12.0232C2.51953 11.7881 2.70425 11.6034 2.93935 11.6034H4.61864C4.85374 11.6034 5.03847 11.7881 5.03847 12.0232Z" fill="#31406F"/>
<path d="M4.61864 4.04663C4.85374 4.04663 5.03847 4.23135 5.03847 4.46645C5.03847 4.70155 4.85374 4.88628 4.61864 4.88628H2.93935C2.70425 4.88628 2.51953 4.70155 2.51953 4.46645C2.51953 4.23135 2.70425 4.04663 2.93935 4.04663H4.61864Z" fill="#31406F"/>
<path d="M4.61864 6.56555C4.85374 6.56555 5.03847 6.75027 5.03847 6.98537C5.03847 7.22047 4.85374 7.4052 4.61864 7.4052H2.93935C2.70425 7.4052 2.51953 7.22047 2.51953 6.98537C2.51953 6.75027 2.70425 6.56555 2.93935 6.56555H4.61864Z" fill="#31406F"/>
<path d="M4.61864 9.08435C4.85374 9.08435 5.03847 9.26907 5.03847 9.50417C5.03847 9.73927 4.85374 9.924 4.61864 9.924H2.93935C2.70425 9.924 2.51953 9.73927 2.51953 9.50417C2.51953 9.26907 2.70425 9.08435 2.93935 9.08435H4.61864Z" fill="#31406F"/>
<path d="M7.55662 15.3817C7.55662 15.1466 7.3635 14.9618 7.1368 14.9618H4.61787C4.38276 14.9618 4.19804 15.1466 4.19804 15.3817V19.1601H3.3584V15.3817C3.3584 14.6848 3.92096 14.1222 4.61787 14.1222H7.1368C7.8337 14.1222 8.39627 14.6848 8.39627 15.3817V19.1601H7.55662V15.3817Z" fill="#31406F"/>
<path d="M4.19804 19.1604H7.55662H8.39627V19.5802C8.39627 19.8153 8.21154 20 7.97644 20H3.77822C3.54312 20 3.3584 19.8153 3.3584 19.5802V19.1604H4.19804Z" fill="#31406F"/>
<path d="M1.46938 0.016347L10.6971 1.41855C11.31 1.51931 11.755 2.03989 11.755 2.66123V7.48079L11.4192 7.41362C11.2932 7.38843 11.1673 7.42201 11.0665 7.49758C10.9742 7.58154 10.9154 7.69909 10.9154 7.82504V2.66123C10.9154 2.45132 10.7642 2.27499 10.5627 2.24141L1.33503 0.847595C1.30985 0.839199 1.28466 0.839199 1.25947 0.839199C1.15871 0.839199 1.06635 0.872784 0.990781 0.939956C0.890023 1.02392 0.839645 1.13307 0.839645 1.25902V18.7404C0.839645 18.9755 1.03276 19.1602 1.25947 19.1602H3.35858V19.5801C3.35858 19.8152 3.5433 19.9999 3.7784 19.9999H1.25947C0.562562 19.9999 0 19.4373 0 18.7404V1.25902C0 0.889577 0.159532 0.536927 0.445012 0.301826C0.730491 0.0583293 1.09993 -0.0424281 1.46938 0.016347Z" fill="#31406F"/>
</svg>
