<svg width="17" height="20" viewBox="0 0 17 20" fill="none" xmlns="http://www.w3.org/2000/svg">
<path d="M14.9942 14.7602C14.9041 14.7012 14.8105 14.649 14.7129 14.6029L13.7293 7.74207C13.5639 6.67644 12.644 5.89213 11.5662 5.89688H10.5867V4.51536C11.7831 4.41368 12.52 3.04504 11.9553 1.9889L11.4598 1.00733C11.1486 0.388429 10.5148 -0.00135223 9.82201 3.52535e-06H6.24823C5.55544 -0.00135223 4.92162 0.388429 4.61047 1.00733L4.11494 1.9889C3.54688 3.04707 4.29051 4.41097 5.48358 4.51536V5.89688H4.50269C3.44181 5.87993 2.49277 6.70356 2.34093 7.7502L1.358 14.6029C0.173748 15.1635 -0.331951 16.5782 0.228656 17.7625C0.30729 17.9638 1.10719 19.1291 1.23192 19.3352C1.50104 19.7494 1.96199 19.9988 2.45617 19.9975H13.6141C14.6682 20.0659 15.1766 18.7352 15.6843 18.0438C16.4008 16.9463 16.0917 15.4767 14.9942 14.7602ZM13.6541 14.3839C13.2087 14.3975 12.7965 14.6246 12.5471 14.994C12.1844 15.4543 11.8679 16.2766 11.4103 16.2325H10.2633V14.0911C10.2633 11.4724 11.2618 9.09647 12.7457 8.03695L13.6541 14.3839ZM5.05245 3.17113C4.68978 2.69525 5.34936 1.90078 5.51747 1.46626C5.65576 1.18968 5.93912 1.01547 6.24823 1.01682H9.82201C10.5284 0.97005 10.7663 1.98416 11.0483 2.44783C11.3025 2.92505 10.9249 3.53515 10.386 3.5243H5.68423C5.42596 3.52701 5.18531 3.39279 5.05245 3.17113ZM9.56984 4.54112V5.89688H6.5004V4.54112H9.56984ZM4.50269 6.9137H11.5676C11.8143 6.91573 12.0536 6.99572 12.2522 7.14215C10.4335 8.36979 9.24649 11.0569 9.24649 14.0911V16.2312H6.82375V14.0911C6.82375 11.0576 5.63678 8.37046 3.81871 7.14282C4.01665 6.99572 4.25594 6.91573 4.50269 6.9137ZM3.32521 8.03627C4.80841 9.09579 5.80693 11.4718 5.80693 14.0904V16.2312H4.65996C4.20374 16.2766 3.88378 15.4516 3.52315 14.9933C3.27369 14.6239 2.86154 14.3968 2.41617 14.3833L3.32521 8.03627ZM14.8329 17.4839C14.8363 17.4873 13.9869 18.7766 13.9869 18.7793C13.9056 18.9061 13.7646 18.9827 13.6141 18.9827H2.45617C2.305 18.9827 2.16468 18.9061 2.08333 18.7793L1.23734 17.4866C0.82858 16.8623 1.00347 16.0244 1.6278 15.6156C1.9159 15.4435 2.42973 15.236 2.67987 15.5607L3.34623 16.5491C3.64042 16.9863 4.13324 17.248 4.65996 17.248H11.4103C12.4061 17.3076 12.9192 16.2515 13.3904 15.5573C13.4602 15.4543 13.5768 15.3926 13.7015 15.3919C14.7509 15.3635 15.4274 16.6236 14.8329 17.4839Z" fill="#31406F"/>
<path d="M7.39303 9.08786H8.681C9.34532 9.08515 9.346 8.07376 8.681 8.07104H7.39303C6.7287 8.07376 6.72803 9.08515 7.39303 9.08786Z" fill="#31406F"/>
</svg>
