<svg width="19" height="19" viewBox="0 0 19 19" fill="none" xmlns="http://www.w3.org/2000/svg">
<path d="M9.74219 0.26001C7.96216 0.26001 6.2221 0.78785 4.74206 1.77678C3.26202 2.76572 2.10846 4.17132 1.42728 5.81586C0.746087 7.46039 0.567857 9.26999 0.915124 11.0158C1.26239 12.7616 2.11956 14.3653 3.37823 15.624C4.6369 16.8826 6.24055 17.7398 7.98638 18.0871C9.73221 18.4343 11.5418 18.2561 13.1863 17.5749C14.8309 16.8937 16.2365 15.7402 17.2254 14.2601C18.2143 12.7801 18.7422 11.04 18.7422 9.26001C18.7394 6.87392 17.7903 4.58636 16.1031 2.89914C14.4158 1.21192 12.1283 0.262812 9.74219 0.26001ZM4.7516 15.4365C5.26936 14.5755 6.00103 13.8632 6.87552 13.3686C7.75 12.8741 8.73755 12.6142 9.74219 12.6142C10.7468 12.6142 11.7344 12.8741 12.6089 13.3686C13.4833 13.8632 14.215 14.5755 14.7328 15.4365C13.3213 16.581 11.5594 17.2056 9.74219 17.2056C7.92501 17.2056 6.16305 16.581 4.7516 15.4365ZM6.74219 8.55413C6.74219 7.96078 6.91814 7.38076 7.24778 6.88741C7.57743 6.39407 8.04596 6.00955 8.59414 5.78249C9.14232 5.55542 9.74552 5.49601 10.3275 5.61177C10.9094 5.72753 11.444 6.01325 11.8635 6.43281C12.2831 6.85236 12.5688 7.38691 12.6845 7.96885C12.8003 8.5508 12.7409 9.154 12.5138 9.70218C12.2868 10.2504 11.9022 10.7189 11.4089 11.0485C10.9156 11.3782 10.3355 11.5541 9.74219 11.5541C8.94654 11.5541 8.18348 11.2381 7.62087 10.6754C7.05826 10.1128 6.74219 9.34977 6.74219 8.55413ZM15.5225 14.6988C14.6907 13.4054 13.4473 12.43 11.9931 11.93C12.7182 11.447 13.2687 10.7435 13.5631 9.9235C13.8575 9.10348 13.8803 8.21049 13.628 7.37655C13.3757 6.54261 12.8617 5.81199 12.1621 5.29272C11.4625 4.77345 10.6143 4.49309 9.74307 4.49309C8.8718 4.49309 8.02366 4.77345 7.32404 5.29272C6.62442 5.81199 6.11046 6.54261 5.85816 7.37655C5.60585 8.21049 5.62859 9.10348 5.92302 9.9235C6.21745 10.7435 6.76793 11.447 7.49307 11.93C6.03883 12.43 4.79548 13.4054 3.96366 14.6988C2.90027 13.5704 2.19051 12.1553 1.92193 10.6282C1.65336 9.10107 1.83772 7.52874 2.45228 6.10518C3.06684 4.68162 4.08471 3.46912 5.3803 2.61727C6.67589 1.76542 8.19252 1.31149 9.74307 1.31149C11.2936 1.31149 12.8103 1.76542 14.1058 2.61727C15.4014 3.46912 16.4193 4.68162 17.0339 6.10518C17.6484 7.52874 17.8328 9.10107 17.5642 10.6282C17.2956 12.1553 16.5859 13.5704 15.5225 14.6988Z" fill="#31406F"/>
</svg>
