<svg width="21" height="20" viewBox="0 0 21 20" fill="none" xmlns="http://www.w3.org/2000/svg">
<path d="M9.81733 4.36316C9.13416 4.36316 8.46633 4.56574 7.89829 4.94529C7.33026 5.32484 6.88753 5.86431 6.62609 6.49547C6.36465 7.12664 6.29625 7.82116 6.42953 8.4912C6.56281 9.16124 6.89179 9.77672 7.37486 10.2598C7.85794 10.7429 8.47341 11.0718 9.14345 11.2051C9.8135 11.3384 10.508 11.27 11.1392 11.0086C11.7703 10.7471 12.3098 10.3044 12.6894 9.73636C13.0689 9.16832 13.2715 8.5005 13.2715 7.81733C13.2715 6.90122 12.9076 6.02264 12.2598 5.37486C11.612 4.72708 10.7334 4.36316 9.81733 4.36316ZM9.81733 10.1807C9.34989 10.1807 8.89296 10.0421 8.5043 9.7824C8.11565 9.52271 7.81273 9.1536 7.63385 8.72175C7.45497 8.2899 7.40817 7.8147 7.49936 7.35625C7.59055 6.8978 7.81564 6.47669 8.14617 6.14617C8.47669 5.81564 8.8978 5.59055 9.35625 5.49936C9.8147 5.40817 10.2899 5.45497 10.7218 5.63385C11.1536 5.81273 11.5227 6.11565 11.7824 6.5043C12.0421 6.89296 12.1807 7.34989 12.1807 7.81733C12.1807 8.44413 11.9317 9.04527 11.4885 9.48849C11.0453 9.93171 10.4441 10.1807 9.81733 10.1807ZM9.81733 0C7.74478 0.00240574 5.75781 0.826787 4.2923 2.2923C2.82679 3.75781 2.00241 5.74478 2 7.81733C2 10.627 3.30349 13.6112 5.76959 16.4473C6.88266 17.7336 8.13538 18.8921 9.50463 19.9015C9.59629 19.9656 9.70546 20 9.81733 20C9.9292 20 10.0384 19.9656 10.13 19.9015C11.4993 18.8921 12.752 17.7336 13.8651 16.4473C16.3312 13.6112 17.6347 10.6297 17.6347 7.81733C17.6322 5.74478 16.8079 3.75781 15.3424 2.2923C13.8768 0.826787 11.8899 0.00240574 9.81733 0ZM9.81733 18.7716C8.45384 17.719 3.09079 13.2367 3.09079 7.81733C3.09079 6.03334 3.79948 4.32242 5.06095 3.06095C6.32242 1.79948 8.03334 1.09079 9.81733 1.09079C11.6013 1.09079 13.3122 1.79948 14.5737 3.06095C15.8352 4.32242 16.5439 6.03334 16.5439 7.81733C16.5439 13.2367 11.1808 17.719 9.81733 18.7716Z" fill="#31406F"/>
</svg>
