<svg width="21" height="20" viewBox="0 0 21 20" fill="none" xmlns="http://www.w3.org/2000/svg">
<path d="M7.17174 13.8654C7.11434 13.864 7.05809 13.8466 7.00784 13.8147C6.95759 13.7828 6.91485 13.7374 6.8833 13.6823L5.42937 11.1225C5.42224 11.1105 5.41597 11.0979 5.41061 11.0848C5.10341 10.4011 4.43741 9.80078 3.80659 10.035L3.6612 10.0888L4.09269 10.9986C4.13716 11.0929 4.1472 11.2035 4.12059 11.3062C4.09398 11.409 4.03291 11.4954 3.95082 11.5464C3.86872 11.5975 3.77232 11.609 3.68282 11.5784C3.59333 11.5479 3.51807 11.4778 3.4736 11.3836L2.84512 10.0538C2.82257 10.0058 2.80867 9.953 2.80426 9.89865C2.79985 9.84431 2.80502 9.7895 2.81947 9.7375C2.83391 9.6855 2.85733 9.63737 2.88833 9.59598C2.91933 9.5546 2.95727 9.5208 2.9999 9.49661L3.09135 9.45354L3.58851 9.26781C4.59219 8.89365 5.57242 9.70119 6.02736 10.6971L7.47191 13.2409C7.50649 13.3017 7.52615 13.3721 7.52881 13.4446C7.53147 13.5172 7.51704 13.5892 7.48703 13.6531C7.45703 13.7171 7.41256 13.7705 7.35831 13.8079C7.30406 13.8452 7.24204 13.8651 7.17878 13.8654H7.17174Z" fill="#31406F"/>
<path d="M16.5966 18.9609H13.215C13.1733 18.9603 13.132 18.9511 13.0931 18.9339L5.25592 15.5934C5.22833 15.5825 5.20227 15.5671 5.17853 15.5477L0.155432 11.58C0.114422 11.5481 0.0797007 11.5066 0.0535132 11.4584C0.0273256 11.4101 0.0102543 11.3561 0.00340269 11.2997C-0.00344889 11.2434 7.18029e-05 11.1861 0.0137371 11.1314C0.0274024 11.0767 0.0509082 11.026 0.0827351 10.9824L0.139016 10.907L0.502499 10.4925C1.25057 9.63651 2.44186 9.84647 3.24152 10.4925L7.30783 13.1843H7.82843C7.52107 12.7377 7.35563 12.1841 7.35943 11.615C7.35827 11.606 7.35827 11.597 7.35943 11.5881L7.37819 11.3566C7.38635 11.2566 7.42667 11.1637 7.49127 11.096C7.55587 11.0283 7.64013 10.9907 7.7276 10.9905H13.3159C13.4019 10.9903 13.4851 11.0257 13.5504 11.0901L15.6046 13.1654H16.5966C16.6899 13.1654 16.7793 13.208 16.8453 13.2837C16.9113 13.3594 16.9483 13.4621 16.9483 13.5692C16.9483 13.6763 16.9113 13.779 16.8453 13.8547C16.7793 13.9304 16.6899 13.973 16.5966 13.973H15.471C15.3848 13.9739 15.3014 13.9384 15.2364 13.8734L13.1822 11.798H8.0817C8.1117 12.1258 8.2214 12.4374 8.39828 12.6971C8.55678 12.9488 8.79205 13.1227 9.05724 13.1843H12.2582C12.3515 13.1843 12.441 13.2268 12.507 13.3025C12.5729 13.3783 12.61 13.481 12.61 13.5881C12.61 13.6951 12.5729 13.7978 12.507 13.8736C12.441 13.9493 12.3515 13.9918 12.2582 13.9918H9.13463H9.02676H7.22107C7.15825 13.9922 7.09656 13.9727 7.04284 13.9353L5.87032 13.152L2.88038 11.187L2.85224 11.1654C2.30819 10.7159 1.47569 10.5275 1.00668 11.0632L0.898813 11.187L5.54201 14.8532L13.2807 18.1533H16.5966C16.6899 18.1533 16.7793 18.1959 16.8453 18.2716C16.9113 18.3473 16.9483 18.45 16.9483 18.5571C16.9483 18.6642 16.9113 18.7669 16.8453 18.8426C16.7793 18.9183 16.6899 18.9609 16.5966 18.9609Z" fill="#31406F"/>
<path d="M18.6906 19.9999H16.5988C16.5055 19.9999 16.4161 19.9574 16.3501 19.8816C16.2841 19.8059 16.2471 19.7032 16.2471 19.5961V12.0214C16.2471 11.9144 16.2841 11.8117 16.3501 11.7359C16.4161 11.6602 16.5055 11.6177 16.5988 11.6177H19.7998C19.8931 11.6177 19.9826 11.6602 20.0486 11.7359C20.1145 11.8117 20.1516 11.9144 20.1516 12.0214C20.1516 12.1285 20.1145 12.2312 20.0486 12.307C19.9826 12.3827 19.8931 12.4252 19.7998 12.4252H16.9506V19.1924H18.6906C18.7839 19.1924 18.8734 19.2349 18.9393 19.3106C19.0053 19.3864 19.0424 19.4891 19.0424 19.5961C19.0424 19.7032 19.0053 19.8059 18.9393 19.8816C18.8734 19.9574 18.7839 19.9999 18.6906 19.9999Z" fill="#31406F"/>
<path d="M9.89223 9.8681C9.04187 9.8681 8.21062 9.57859 7.50363 9.03619C6.79665 8.49379 6.24571 7.72288 5.9205 6.82098C5.5953 5.91909 5.51045 4.92674 5.67669 3.96948C5.84293 3.01223 6.25278 2.13307 6.85441 1.44325C7.45603 0.753424 8.22238 0.283926 9.05651 0.0941531C9.89065 -0.0956199 10.7551 0.00285923 11.5404 0.377131C12.3258 0.751404 12.9968 1.38465 13.4686 2.19676C13.9403 3.00887 14.1916 3.96334 14.1907 4.93944C14.1882 6.24666 13.7344 7.49944 12.9287 8.42328C12.123 9.34713 11.0311 9.86668 9.89223 9.8681ZM9.89223 0.810231C9.18131 0.810231 8.48635 1.05218 7.89522 1.50549C7.30408 1.9588 6.8433 2.60311 6.57114 3.35697C6.29898 4.11084 6.22765 4.94041 6.36617 5.7408C6.50469 6.54119 6.84685 7.27647 7.34938 7.85368C7.85191 8.43089 8.49225 8.82411 9.18945 8.98364C9.88665 9.14316 10.6094 9.06183 11.2663 8.74992C11.9233 8.438 12.4849 7.90952 12.8802 7.23127C13.2755 6.55302 13.4867 5.75547 13.4872 4.93944C13.4859 3.84545 13.1068 2.79669 12.4329 2.02312C11.759 1.24956 10.8453 0.814347 9.89223 0.812922V0.810231Z" fill="#31406F"/>
<path d="M10.1927 7.76852H9.59469C9.30424 7.76852 9.02568 7.63608 8.82031 7.40034C8.61493 7.16459 8.49955 6.84485 8.49955 6.51146V6.24228C8.49955 6.13519 8.53661 6.03249 8.60257 5.95677C8.66854 5.88105 8.75801 5.83851 8.8513 5.83851C8.9446 5.83851 9.03407 5.88105 9.10003 5.95677C9.166 6.03249 9.20306 6.13519 9.20306 6.24228V6.51146C9.20306 6.63068 9.24432 6.74502 9.31777 6.82932C9.39121 6.91363 9.49082 6.96099 9.59469 6.96099H10.1927C10.2965 6.96099 10.3961 6.91363 10.4696 6.82932C10.543 6.74502 10.5843 6.63068 10.5843 6.51146V5.93003C10.5843 5.83582 10.5585 5.71469 10.3686 5.62317L9.14443 5.08481C8.95368 5.01345 8.78789 4.87377 8.67139 4.68627C8.5549 4.49878 8.49385 4.27335 8.4972 4.04309V3.45897C8.49782 3.12533 8.61372 2.80559 8.81948 2.56993C9.02523 2.33426 9.30402 2.2019 9.59469 2.2019H10.1903C10.481 2.2019 10.7598 2.33426 10.9655 2.56993C11.1713 2.80559 11.2872 3.12533 11.2878 3.45897V3.72815C11.2878 3.83523 11.2508 3.93793 11.1848 4.01366C11.1188 4.08938 11.0293 4.13192 10.9361 4.13192C10.8428 4.13192 10.7533 4.08938 10.6873 4.01366C10.6214 3.93793 10.5843 3.83523 10.5843 3.72815V3.45897C10.5837 3.3395 10.5419 3.22517 10.4681 3.14094C10.3943 3.05671 10.2944 3.00944 10.1903 3.00944H9.59469C9.4906 3.00944 9.39075 3.05671 9.31693 3.14094C9.24312 3.22517 9.20134 3.3395 9.20072 3.45897V4.0404C9.19615 4.10607 9.21272 4.17138 9.2473 4.22397C9.28187 4.27655 9.33205 4.31276 9.38832 4.32573L10.6289 4.86408C10.8208 4.94008 10.9873 5.08276 11.1054 5.27232C11.2235 5.46188 11.2872 5.68893 11.2878 5.92196V6.50338C11.2884 6.66904 11.2606 6.83322 11.2058 6.9865C11.1511 7.13979 11.0706 7.27918 10.9689 7.3967C10.8671 7.51421 10.7462 7.60754 10.613 7.67134C10.4798 7.73515 10.337 7.76817 10.1927 7.76852Z" fill="#31406F"/>
<path d="M9.93184 8.73758C9.83854 8.73758 9.74907 8.69504 9.68311 8.61931C9.61714 8.54359 9.58008 8.44089 9.58008 8.33381V7.44552C9.58008 7.33843 9.61714 7.23573 9.68311 7.16001C9.74907 7.08429 9.83854 7.04175 9.93184 7.04175C10.0251 7.04175 10.1146 7.08429 10.1806 7.16001C10.2465 7.23573 10.2836 7.33843 10.2836 7.44552V8.33381C10.2836 8.44089 10.2465 8.54359 10.1806 8.61931C10.1146 8.69504 10.0251 8.73758 9.93184 8.73758Z" fill="#31406F"/>
<path d="M9.93184 2.95823C9.83854 2.95823 9.74907 2.91569 9.68311 2.83997C9.61714 2.76425 9.58008 2.66155 9.58008 2.55446V1.6877C9.58008 1.58062 9.61714 1.47792 9.68311 1.4022C9.74907 1.32648 9.83854 1.28394 9.93184 1.28394C10.0251 1.28394 10.1146 1.32648 10.1806 1.4022C10.2465 1.47792 10.2836 1.58062 10.2836 1.6877V2.55446C10.2836 2.66155 10.2465 2.76425 10.1806 2.83997C10.1146 2.91569 10.0251 2.95823 9.93184 2.95823Z" fill="#31406F"/>
</svg>
