<svg width="21" height="20" viewBox="0 0 21 20" fill="none" xmlns="http://www.w3.org/2000/svg">
<path d="M6.41283 13.3784L4.50703 11.4727C4.1336 11.1001 3.6386 10.8948 3.11126 10.8948H1.79123C1.57334 10.8948 1.39648 11.0716 1.39648 11.2895C1.39648 11.5074 1.57334 11.6842 1.79123 11.6842H3.11122C3.42226 11.6842 3.72778 11.8105 3.94805 12.0308L5.1804 13.2632H1.79123C1.57334 13.2632 1.39648 13.44 1.39648 13.6579C1.39648 13.8758 1.57334 14.0527 1.79123 14.0527H6.13332C6.29278 14.0527 6.43648 13.9563 6.49806 13.8087C6.55963 13.6611 6.5257 13.4913 6.41283 13.3784Z" fill="#31406F"/>
<path d="M6.13119 15.2368C5.91329 15.2368 5.73644 15.4136 5.73644 15.6315V16.8157C5.73644 17.0336 5.55881 17.2105 5.34169 17.2105H2.97327C2.75615 17.2105 2.57852 17.0336 2.57852 16.8157V15.2368C2.57852 15.0189 2.40167 14.842 2.18377 14.842C1.96588 14.842 1.78906 15.0189 1.78906 15.2368V16.8157C1.78906 17.4687 2.32037 18 2.97327 18H5.34169C5.99459 18 6.5259 17.4687 6.5259 16.8157V15.6315C6.5259 15.4136 6.34908 15.2368 6.13119 15.2368Z" fill="#31406F"/>
<path d="M18.156 8.57128C17.0682 8.00208 14.6263 7.73682 10.4737 7.73682C6.32102 7.73682 3.87922 8.00208 2.7913 8.57128C1.55184 9.21863 1 10.3002 1 12.0789C1 13.7889 1.39157 15.2763 1.40814 15.3386C1.45392 15.5115 1.61024 15.6315 1.78946 15.6315H5.24894L6.74419 16.3792C6.79944 16.4068 6.86024 16.421 6.92104 16.421H14.0263C14.0871 16.421 14.1479 16.4068 14.2023 16.3792L15.6984 15.6315H19.1579C19.3371 15.6315 19.4934 15.5115 19.5392 15.3386C19.5558 15.2763 19.9473 13.7889 19.9473 12.0789C19.9473 10.3002 19.3955 9.21863 18.156 8.57128ZM18.846 14.842H15.606C15.5444 14.842 15.4836 14.8562 15.4292 14.8839L13.9331 15.6315H7.01419L5.51894 14.8839C5.46369 14.8562 5.40289 14.842 5.34209 14.842H2.10209C1.99237 14.3391 1.78946 13.2528 1.78946 12.0789C1.78946 10.5923 2.18576 9.77836 3.15604 9.2707C4.10181 8.77648 6.56341 8.52624 10.4737 8.52624C14.3839 8.52624 16.8455 8.77651 17.7913 9.2707C18.7616 9.77832 19.1579 10.5923 19.1579 12.0789C19.1579 13.2528 18.955 14.3391 18.846 14.842Z" fill="#31406F"/>
<path d="M19.1585 13.2632H15.7693L17.0009 12.0308C17.2219 11.8106 17.5267 11.6843 17.8385 11.6843H19.1585C19.3764 11.6843 19.5533 11.5074 19.5533 11.2895C19.5533 11.0716 19.3764 10.8948 19.1585 10.8948H17.8385C17.3112 10.8948 16.8162 11.1001 16.4428 11.4727L14.537 13.3785C14.4249 13.4914 14.3909 13.6611 14.4517 13.8087C14.5125 13.9564 14.657 14.0527 14.8164 14.0527H19.1585C19.3764 14.0527 19.5533 13.8758 19.5533 13.6579C19.5532 13.44 19.3764 13.2632 19.1585 13.2632Z" fill="#31406F"/>
<path d="M15.172 11.1221C15.1065 10.9832 14.9676 10.8948 14.8144 10.8948H6.13024C5.97707 10.8948 5.83815 10.9832 5.77261 11.1221C5.70789 11.2603 5.72839 11.4245 5.82709 11.5421L7.80075 13.9105C7.87577 14.0005 7.98708 14.0527 8.10391 14.0527H12.8407C12.9576 14.0527 13.0689 14.0005 13.1439 13.9105L15.1176 11.5421C15.2163 11.4245 15.2368 11.2603 15.172 11.1221ZM12.6552 13.2632H8.28865L6.97259 11.6842H13.9713L12.6552 13.2632Z" fill="#31406F"/>
<path d="M18.3361 8.76395C17.8869 7.73132 16.3838 4.3279 15.8611 3.88342C15.2098 3.32999 13.3443 3 10.8685 3H10.079C7.60327 3 5.73774 3.32999 5.08642 3.88264C4.56378 4.32713 3.05984 7.73054 2.61143 8.76317C2.52539 8.96371 2.61694 9.19582 2.8167 9.28263C3.01565 9.36949 3.24935 9.27867 3.33616 9.07817C4.22747 7.02635 5.31775 4.74634 5.598 4.48503C5.90194 4.22688 7.18799 3.7895 10.079 3.7895H10.8685C13.7596 3.7895 15.0456 4.22688 15.348 4.48344C15.6298 4.74634 16.7201 7.02553 17.6114 9.07817C17.6761 9.22738 17.8222 9.31579 17.9738 9.31579C18.0259 9.31579 18.0803 9.30554 18.1309 9.28341C18.3306 9.19659 18.4222 8.96368 18.3361 8.76395Z" fill="#31406F"/>
<path d="M18.7631 14.842C18.5452 14.842 18.3683 15.0189 18.3683 15.2368V16.8157C18.3683 17.0336 18.1907 17.2105 17.9736 17.2105H15.6051C15.388 17.2105 15.2104 17.0336 15.2104 16.8157V15.6315C15.2104 15.4136 15.0335 15.2368 14.8156 15.2368C14.5978 15.2368 14.4209 15.4136 14.4209 15.6315V16.8157C14.4209 17.4687 14.9522 18 15.6051 18H17.9735C18.6264 18 19.1577 17.4687 19.1577 16.8157V15.2368C19.1578 15.0189 18.981 14.842 18.7631 14.842Z" fill="#31406F"/>
</svg>
