<svg width="16" height="16" viewBox="0 0 16 16" fill="none" xmlns="http://www.w3.org/2000/svg">
<g clip-path="url(#clip0_963_90928)">
<path d="M3.5 4.49976V6.99976" stroke="#31406F" stroke-linecap="round" stroke-linejoin="round"/>
<path d="M8.5 4.99976V10.9998" stroke="#31406F" stroke-linecap="round" stroke-linejoin="round"/>
<path d="M3.5 11.4998V9.99976C3.5 9.17133 4.17157 8.49976 5 8.49976H12C12.8284 8.49976 13.5 7.82818 13.5 6.99976V4.49976" stroke="#31406F" stroke-linecap="round" stroke-linejoin="round"/>
<path d="M4.5 3.49976C4.5 4.05204 4.05228 4.49976 3.5 4.49976C2.94772 4.49976 2.5 4.05204 2.5 3.49976C2.5 2.94747 2.94772 2.49976 3.5 2.49976C4.05228 2.49976 4.5 2.94747 4.5 3.49976Z" stroke="#31406F" stroke-linecap="round"/>
<path d="M9.5 3.49976C9.5 4.05204 9.05228 4.49976 8.5 4.49976C7.94772 4.49976 7.5 4.05204 7.5 3.49976C7.5 2.94747 7.94772 2.49976 8.5 2.49976C9.05228 2.49976 9.5 2.94747 9.5 3.49976Z" stroke="#31406F" stroke-linecap="round"/>
<path d="M14.5 3.49976C14.5 4.05204 14.0523 4.49976 13.5 4.49976C12.9477 4.49976 12.5 4.05204 12.5 3.49976C12.5 2.94747 12.9477 2.49976 13.5 2.49976C14.0523 2.49976 14.5 2.94747 14.5 3.49976Z" stroke="#31406F" stroke-linecap="round"/>
<path d="M4.5 12.4998C4.5 13.052 4.05228 13.4998 3.5 13.4998C2.94772 13.4998 2.5 13.052 2.5 12.4998C2.5 11.9475 2.94772 11.4998 3.5 11.4998C4.05228 11.4998 4.5 11.9475 4.5 12.4998Z" stroke="#31406F" stroke-linecap="round"/>
<path d="M9.5 12.4998C9.5 13.052 9.05228 13.4998 8.5 13.4998C7.94772 13.4998 7.5 13.052 7.5 12.4998C7.5 11.9475 7.94772 11.4998 8.5 11.4998C9.05228 11.4998 9.5 11.9475 9.5 12.4998Z" stroke="#31406F" stroke-linecap="round"/>
</g>
<defs>
<clipPath id="clip0_963_90928">
<rect width="16" height="16" fill="white"/>
</clipPath>
</defs>
</svg>
