<svg width="19" height="18" viewBox="0 0 19 18" fill="none" xmlns="http://www.w3.org/2000/svg">
<path d="M15.9217 2.69174C14.1774 0.965204 11.8216 -0.00226613 9.36734 3.98601e-06H9.27551C6.80708 0.0242054 4.44799 1.02179 2.71108 2.77589C0.974179 4.53 -0.000118626 6.8988 1.08333e-08 9.36735C1.08333e-08 13.2328 2.39418 16.4792 6.2449 17.8402C6.54301 17.946 6.85703 18.0001 7.17337 18C7.90186 17.9959 8.5992 17.704 9.11339 17.1879C9.62757 16.6718 9.91692 15.9734 9.91837 15.2449C9.91837 14.8065 10.0925 14.386 10.4025 14.076C10.7125 13.766 11.133 13.5918 11.5714 13.5918H15.8152C16.44 13.595 17.047 13.3844 17.5357 12.995C18.0243 12.6056 18.365 12.0608 18.5014 11.4511C18.6625 10.7407 18.7408 10.014 18.7347 9.28561C18.7255 8.05506 18.4721 6.83858 17.9892 5.70669C17.5063 4.5748 16.8036 3.55001 15.9217 2.69174ZM17.4269 11.2041C17.3454 11.5702 17.141 11.8973 16.8478 12.1312C16.5546 12.3651 16.1903 12.4916 15.8152 12.4898H11.5714C10.8407 12.4898 10.14 12.7801 9.62327 13.2967C9.10659 13.8134 8.81632 14.5142 8.81632 15.2449C8.81676 15.5096 8.75362 15.7705 8.63224 16.0057C8.51085 16.2409 8.33475 16.4435 8.11876 16.5965C7.90277 16.7495 7.6532 16.8484 7.39104 16.8849C7.12888 16.9214 6.86179 16.8944 6.61224 16.8061C3.21428 15.5994 1.10204 12.7515 1.10204 9.36735C1.10192 7.18997 1.961 5.1005 3.49262 3.55289C5.02424 2.00527 7.10468 1.12454 9.28194 1.10204H9.36734C11.5446 1.11007 13.6315 1.97366 15.1777 3.50651C16.724 5.03936 17.6057 7.11861 17.6326 9.29572C17.638 9.93765 17.569 10.578 17.4269 11.2041ZM10.2857 4.59184C10.2857 4.77348 10.2319 4.95103 10.1309 5.10206C10.03 5.25308 9.8866 5.37079 9.71879 5.4403C9.55098 5.50981 9.36633 5.528 9.18818 5.49256C9.01003 5.45713 8.8464 5.36966 8.71796 5.24122C8.58953 5.11279 8.50206 4.94915 8.46662 4.771C8.43119 4.59286 8.44938 4.40821 8.51888 4.2404C8.58839 4.07259 8.7061 3.92916 8.85713 3.82825C9.00815 3.72733 9.18571 3.67347 9.36734 3.67347C9.61091 3.67347 9.8445 3.77023 10.0167 3.94246C10.189 4.11468 10.2857 4.34827 10.2857 4.59184ZM6.2449 6.79592C6.2449 6.97756 6.19104 7.15511 6.09012 7.30614C5.98921 7.45716 5.84578 7.57487 5.67797 7.64438C5.51016 7.71389 5.32551 7.73208 5.14736 7.69664C4.96922 7.66121 4.80558 7.57374 4.67715 7.4453C4.54871 7.31687 4.46124 7.15323 4.42581 6.97509C4.39037 6.79694 4.40856 6.61229 4.47807 6.44448C4.54758 6.27667 4.66529 6.13324 4.81631 6.03233C4.96734 5.93142 5.14489 5.87755 5.32653 5.87755C5.5701 5.87755 5.80369 5.97431 5.97591 6.14654C6.14814 6.31876 6.2449 6.55235 6.2449 6.79592ZM6.2449 11.9388C6.2449 12.1204 6.19104 12.298 6.09012 12.449C5.98921 12.6 5.84578 12.7177 5.67797 12.7872C5.51016 12.8567 5.32551 12.8749 5.14736 12.8395C4.96922 12.8041 4.80558 12.7166 4.67715 12.5882C4.54871 12.4597 4.46124 12.2961 4.42581 12.1179C4.39037 11.9398 4.40856 11.7551 4.47807 11.5873C4.54758 11.4195 4.66529 11.2761 4.81631 11.1752C4.96734 11.0743 5.14489 11.0204 5.32653 11.0204C5.5701 11.0204 5.80369 11.1172 5.97591 11.2894C6.14814 11.4616 6.2449 11.6952 6.2449 11.9388ZM14.3265 6.79592C14.3265 6.97756 14.2727 7.15511 14.1718 7.30614C14.0708 7.45716 13.9274 7.57487 13.7596 7.64438C13.5918 7.71389 13.4071 7.73208 13.229 7.69664C13.0508 7.66121 12.8872 7.57374 12.7588 7.4453C12.6303 7.31687 12.5429 7.15323 12.5074 6.97509C12.472 6.79694 12.4902 6.61229 12.5597 6.44448C12.6292 6.27667 12.7469 6.13324 12.8979 6.03233C13.049 5.93142 13.2265 5.87755 13.4082 5.87755C13.6517 5.87755 13.8853 5.97431 14.0575 6.14654C14.2298 6.31876 14.3265 6.55235 14.3265 6.79592Z" fill="#31406F"/>
</svg>
