<svg width="32" height="26" viewBox="0 0 32 26" fill="none" xmlns="http://www.w3.org/2000/svg">
<path fillRule="evenodd" clipRule="evenodd" d="M8.96 16.4282L5.44 23.0416L4.05333 25.6016L9.38667 25.6016C11.2 22.2949 13.0133 18.8816 14.8267 15.4682C14.9115 15.3431 14.9493 15.1919 14.9333 15.0416L14.9333 0.00155872L2.23802e-06 0.00155741L1.00711e-06 14.0816L10.24 14.0816L8.96 16.4282ZM26.0267 16.4282L25.1733 18.1349L21.2267 25.6016L26.56 25.6016C27.4133 24.0016 28.2667 22.2949 29.12 20.6949C29.9733 19.0949 30.9333 17.2816 31.8933 15.4682C31.8933 15.3616 32 15.1482 32 15.0416L32 0.00156021L17.0667 0.00155891L17.0667 14.0816L27.3067 14.0816L26.0267 16.4282Z" fill="#1A6FB7"/>
</svg>
