<svg width="41" height="44" viewBox="0 0 41 44" fill="none" xmlns="http://www.w3.org/2000/svg">
<g clip-path="url(#clip0_4063_48768)">
<path d="M13.4816 11C14.1164 12.4467 14.2997 14.0513 14.0076 15.6039C13.7155 17.1565 12.9616 18.5848 11.8444 19.7019C10.7273 20.819 9.29907 21.5729 7.74647 21.865C6.19388 22.1571 4.58928 21.9738 3.14258 21.339V34.5714C3.14258 35.405 3.4737 36.2044 4.0631 36.7938C4.6525 37.3832 5.4519 37.7143 6.28544 37.7143H21.9997V33.0845C21.9997 31.513 23.1292 30.138 24.626 29.8984C24.7968 29.8712 24.9696 29.8574 25.1426 29.8571V23.6559C25.1426 22.0845 26.272 20.7095 27.7688 20.4698C27.9397 20.4426 28.1124 20.4288 28.2854 20.4286C29.119 20.4286 29.9184 20.7597 30.5078 21.3491C31.0972 21.9385 31.4283 22.7379 31.4283 23.5714V26.7143C31.9803 26.7134 32.5226 26.8591 32.9997 27.1366C33.4772 26.86 34.0193 26.7143 34.5712 26.7143C35.123 26.7143 35.6651 26.86 36.1426 27.1366C36.6197 26.859 37.162 26.7133 37.714 26.7143C37.8871 26.7144 38.0598 26.7285 38.2306 26.7565C39.7274 26.9991 40.8569 28.3692 40.8569 29.9416V11H13.4816Z" fill="#F0F0F0"/>
<path d="M37.714 3.14453H6.28544C5.4519 3.14453 4.6525 3.47565 4.0631 4.06505C3.4737 4.65445 3.14258 5.45385 3.14258 6.28739V6.94837C4.08733 6.53374 5.10464 6.3097 6.13616 6.2891C7.16769 6.26849 8.19313 6.45173 9.15369 6.82831C10.1142 7.20488 10.991 7.76738 11.7337 8.48354C12.4764 9.19971 13.0704 10.0554 13.4816 11.0017H40.8569V6.28739C40.8569 5.45385 40.5257 4.65445 39.9363 4.06505C39.3469 3.47565 38.5475 3.14453 37.714 3.14453Z" fill="#1A6FB7"/>
<path d="M14.1417 6.28571C13.725 6.28571 13.3253 6.12015 13.0306 5.82545C12.7359 5.53075 12.5703 5.13105 12.5703 4.71429V1.57143C12.5703 1.15466 12.7359 0.754961 13.0306 0.460261C13.3253 0.165561 13.725 0 14.1417 0C14.5585 0 14.9582 0.165561 15.2529 0.460261C15.5476 0.754961 15.7132 1.15466 15.7132 1.57143V4.71429C15.7132 5.13105 15.5476 5.53075 15.2529 5.82545C14.9582 6.12015 14.5585 6.28571 14.1417 6.28571Z" fill="#FF9C00"/>
<path d="M21.9992 6.28571C21.5824 6.28571 21.1827 6.12015 20.888 5.82545C20.5933 5.53075 20.4277 5.13105 20.4277 4.71429V1.57143C20.4277 1.15466 20.5933 0.754961 20.888 0.460261C21.1827 0.165561 21.5824 0 21.9992 0C22.4159 0 22.8156 0.165561 23.1103 0.460261C23.405 0.754961 23.5706 1.15466 23.5706 1.57143V4.71429C23.5706 5.13105 23.405 5.53075 23.1103 5.82545C22.8156 6.12015 22.4159 6.28571 21.9992 6.28571Z" fill="#FF9C00"/>
<path d="M29.8566 6.28571C29.4398 6.28571 29.0401 6.12015 28.7454 5.82545C28.4507 5.53075 28.2852 5.13105 28.2852 4.71429V1.57143C28.2852 1.15466 28.4507 0.754961 28.7454 0.460261C29.0401 0.165561 29.4398 0 29.8566 0C30.2734 0 30.6731 0.165561 30.9678 0.460261C31.2625 0.754961 31.428 1.15466 31.428 1.57143V4.71429C31.428 5.13105 31.2625 5.53075 30.9678 5.82545C30.6731 6.12015 30.2734 6.28571 29.8566 6.28571Z" fill="#FF9C00"/>
<path d="M14.1426 15.7148H17.2854V18.8577H14.1426V15.7148Z" fill="#3F4047"/>
<path d="M20.4277 15.7148H23.5706V18.8577H20.4277V15.7148Z" fill="#3F4047"/>
<path d="M26.7129 15.7148H29.8557V18.8577H26.7129V15.7148Z" fill="#FF9C00"/>
<path d="M33 15.7148H36.1429V18.8577H33V15.7148Z" fill="#3F4047"/>
<path d="M7.85742 22H11.0003V25.1429H7.85742V22Z" fill="#3F4047"/>
<path d="M14.1426 22H17.2854V25.1429H14.1426V22Z" fill="#3F4047"/>
<path d="M20.4277 22H23.5706V25.1429H20.4277V22Z" fill="#3F4047"/>
<path d="M33 22H36.1429V25.1429H33V22Z" fill="#3F4047"/>
<path d="M7.85742 28.2852H11.0003V31.428H7.85742V28.2852Z" fill="#3F4047"/>
<path d="M14.1426 28.2852H17.2854V31.428H14.1426V28.2852Z" fill="#3F4047"/>
<path d="M6.28544 34.5723V22.0008C5.20328 22.0011 4.13293 21.776 3.14258 21.3398V34.5723C3.14258 35.4058 3.4737 36.2052 4.0631 36.7946C4.6525 37.384 5.4519 37.7151 6.28544 37.7151H9.42829C8.59475 37.7151 7.79536 37.384 7.20596 36.7946C6.61656 36.2052 6.28544 35.4058 6.28544 34.5723Z" fill="#D2D2D2"/>
<path d="M6.28544 6.28739C6.28544 5.45385 6.61656 4.65445 7.20596 4.06505C7.79536 3.47565 8.59475 3.14453 9.42829 3.14453H6.28544C5.4519 3.14453 4.6525 3.47565 4.0631 4.06505C3.4737 4.65445 3.14258 5.45385 3.14258 6.28739V6.94837C4.13293 6.51218 5.20328 6.28707 6.28544 6.28739Z" fill="#114A7A"/>
<path d="M6.28572 20.4269C5.04252 20.4269 3.82724 20.0582 2.79356 19.3676C1.75988 18.6769 0.954225 17.6952 0.478474 16.5466C0.00272348 15.3981 -0.121755 14.1342 0.120781 12.9149C0.363317 11.6956 0.961973 10.5756 1.84105 9.69651C2.72012 8.81744 3.84013 8.21879 5.05944 7.97625C6.27874 7.73371 7.54259 7.85819 8.69116 8.33394C9.83972 8.80969 10.8214 9.61535 11.5121 10.649C12.2028 11.6827 12.5714 12.898 12.5714 14.1412C12.5714 15.8083 11.9092 17.4071 10.7304 18.5859C9.55159 19.7647 7.95279 20.4269 6.28572 20.4269Z" fill="#FF9C00"/>
<path d="M1.5709 14.1412C1.57205 12.611 2.13133 11.1338 3.14388 9.98652C4.15644 8.83926 5.55271 8.10076 7.0709 7.90949C6.18369 7.79242 5.28171 7.86614 4.42529 8.12573C3.56887 8.38531 2.77775 8.82477 2.10484 9.41472C1.43194 10.0047 0.892757 10.7315 0.523367 11.5466C0.153976 12.3617 -0.0371094 13.2463 -0.0371094 14.1412C-0.0371094 15.0361 0.153976 15.9207 0.523367 16.7358C0.892757 17.5509 1.43194 18.2777 2.10484 18.8676C2.77775 19.4576 3.56887 19.8971 4.42529 20.1566C5.28171 20.4162 6.18369 20.4899 7.0709 20.3729C5.55271 20.1816 4.15644 19.4431 3.14388 18.2958C2.13133 17.1486 1.57205 15.6714 1.5709 14.1412Z" fill="#DC4632"/>
<path d="M6.2846 18.8583C8.88823 18.8583 10.9989 16.7476 10.9989 14.144C10.9989 11.5403 8.88823 9.42969 6.2846 9.42969C3.68097 9.42969 1.57031 11.5403 1.57031 14.144C1.57031 16.7476 3.68097 18.8583 6.2846 18.8583Z" fill="#F0F0F0"/>
<path d="M4.99144 15.9922L4.43555 15.4363L5.89206 13.9798V11H6.67778V14.3059L4.99144 15.9922Z" fill="#3F4047"/>
<path d="M6.28571 14.9269C6.13032 14.9269 5.97841 14.8808 5.84919 14.7945C5.71998 14.7081 5.61928 14.5854 5.55981 14.4419C5.50034 14.2983 5.48478 14.1403 5.5151 13.9879C5.54541 13.8355 5.62025 13.6955 5.73013 13.5856C5.84002 13.4757 5.98002 13.4009 6.13243 13.3706C6.28484 13.3402 6.44282 13.3558 6.58639 13.4153C6.72997 13.4747 6.85268 13.5755 6.93901 13.7047C7.02535 13.8339 7.07143 13.9858 7.07143 14.1412C7.07143 14.3496 6.98865 14.5494 6.8413 14.6968C6.69395 14.8441 6.4941 14.9269 6.28571 14.9269Z" fill="#FF9C00"/>
<path d="M23.5706 30.2868V28.2852H20.4277V31.428H22.45C22.7214 30.9593 23.1069 30.5667 23.5706 30.2868Z" fill="#3F4047"/>
<path d="M39.2846 44.0008V29.9424C39.2846 29.1567 38.7493 28.4338 37.9774 28.3081C37.7518 28.2696 37.5206 28.2809 37.2999 28.341C37.0792 28.4012 36.8742 28.5088 36.6994 28.6564C36.5246 28.804 36.3841 28.988 36.2878 29.1955C36.1915 29.4031 36.1416 29.6291 36.1417 29.8579C36.1417 29.4411 35.9762 29.0414 35.6815 28.7467C35.3868 28.452 34.9871 28.2865 34.5703 28.2865C34.1535 28.2865 33.7538 28.452 33.4591 28.7467C33.1644 29.0414 32.9989 29.4411 32.9989 29.8579C32.9989 29.4411 32.8333 29.0414 32.5386 28.7467C32.2439 28.452 31.8442 28.2865 31.4275 28.2865C31.0107 28.2865 30.611 28.452 30.3163 28.7467C30.0216 29.0414 29.856 29.4411 29.856 29.8579V23.5722C29.8561 23.3434 29.8063 23.1173 29.71 22.9098C29.6136 22.7023 29.4732 22.5183 29.2984 22.3707C29.1235 22.2231 28.9186 22.1155 28.6979 22.0553C28.4771 21.9951 28.2459 21.9839 28.0204 22.0224C27.2484 22.1481 26.7132 22.8739 26.7132 23.6567V33.0008C26.7133 32.772 26.6634 32.5459 26.5671 32.3384C26.4708 32.1309 26.3303 31.9469 26.1555 31.7993C25.9807 31.6517 25.7758 31.5441 25.555 31.4839C25.3343 31.4237 25.1031 31.4125 24.8775 31.4509C24.1056 31.5767 23.5703 32.3025 23.5703 33.0852V37.9842C23.5704 38.397 23.6518 38.8057 23.8098 39.1871C23.9679 39.5685 24.1996 39.9149 24.4916 40.2067L26.2535 41.9687C26.5479 42.2634 26.7132 42.663 26.7132 43.0795V44.0008H39.2846Z" fill="#FFDEAA"/>
<path d="M27.0383 41.9688L25.2763 40.2069C24.9845 39.915 24.753 39.5684 24.5951 39.1871C24.4372 38.8057 24.356 38.397 24.3561 37.9843V31.6445C24.1137 31.7984 23.9144 32.0113 23.777 32.2634C23.6395 32.5154 23.5684 32.7983 23.5704 33.0853V37.9843C23.5704 38.3971 23.6518 38.8058 23.8099 39.1872C23.9679 39.5686 24.1996 39.915 24.4916 40.2069L26.2536 41.9688C26.5479 42.2635 26.7133 42.6631 26.7132 43.0796V44.0009H27.4989V43.0796C27.4987 42.6629 27.333 42.2634 27.0383 41.9688Z" fill="#AA6800"/>
<path d="M36.9283 28.5V34.6551H36.1426V29.8563C36.1434 29.5813 36.2164 29.3112 36.3542 29.0732C36.4921 28.8352 36.6901 28.6375 36.9283 28.5Z" fill="#AA6800"/>
<path d="M33 34.656V29.8573C33.0007 29.5826 33.0737 29.3129 33.2116 29.0754C33.3495 28.8378 33.5475 28.6407 33.7857 28.5039V34.656H33Z" fill="#AA6800"/>
<path d="M29.8574 29.8573V34.5716H30.6431V28.5039C30.4049 28.6407 30.207 28.8378 30.069 29.0754C29.9311 29.3129 29.8581 29.5826 29.8574 29.8573Z" fill="#AA6800"/>
<path d="M26.7129 34.5721H27.4986V22.2188C27.2603 22.3554 27.0622 22.5525 26.9242 22.7901C26.7863 23.0277 26.7134 23.2974 26.7129 23.5721V34.5721Z" fill="#AA6800"/>
</g>
<defs>
<clipPath id="clip0_4063_48768">
<rect width="40.8571" height="44" fill="white"/>
</clipPath>
</defs>
</svg>
