<svg width="44" height="34" viewBox="0 0 44 34" fill="none" xmlns="http://www.w3.org/2000/svg">
<g clip-path="url(#clip0_4063_48803)">
<path d="M7.45854 27.5977V30.5804C7.45854 30.976 7.30137 31.3555 7.0216 31.6353C6.74183 31.915 6.36239 32.0722 5.96673 32.0722H2.98399C2.58834 32.0722 2.2089 31.915 1.92913 31.6353C1.64936 31.3555 1.49219 30.976 1.49219 30.5804V27.5977H7.45854Z" fill="#051625"/>
<path d="M41.0173 33.564H21.6273C20.8361 33.5638 20.0775 33.2493 19.5181 32.6898C18.9588 32.1303 18.6445 31.3716 18.6445 30.5804V5.22493C18.6445 4.43386 18.9588 3.67518 19.5182 3.11581C20.0775 2.55644 20.8362 2.24219 21.6273 2.24219H26.8473V3.73312H21.6273C21.2316 3.73312 20.8522 3.89029 20.5724 4.17006C20.2926 4.44983 20.1355 4.82928 20.1355 5.22493V30.5804C20.1355 30.9761 20.2926 31.3555 20.5724 31.6353C20.8522 31.915 21.2316 32.0722 21.6273 32.0722H41.0173C41.2131 32.0722 41.4071 32.0336 41.588 31.9586C41.769 31.8836 41.9334 31.7738 42.0718 31.6352C42.2103 31.4967 42.3201 31.3322 42.395 31.1512C42.4698 30.9702 42.5083 30.7763 42.5082 30.5804V5.22493C42.5083 5.02906 42.4698 4.83509 42.395 4.6541C42.3201 4.47311 42.2103 4.30865 42.0718 4.17011C41.9334 4.03157 41.769 3.92167 41.588 3.84669C41.4071 3.77171 41.2131 3.73312 41.0173 3.73312H35.7964V2.24219H41.0173C41.8083 2.24219 42.567 2.55644 43.1264 3.11581C43.6858 3.67518 44 4.43386 44 5.22493V30.5804C44 31.3716 43.6858 32.1303 43.1264 32.6898C42.5671 33.2493 41.8084 33.5638 41.0173 33.564Z" fill="black"/>
<path d="M19.39 13.4297V28.3443H1.49181C1.09666 28.3431 0.718015 28.1857 0.438521 27.9064C0.159027 27.627 0.00138319 27.2485 0 26.8533V17.2549C0.000814949 16.9981 0.0678367 16.7458 0.194593 16.5225C0.321349 16.2991 0.503556 16.1122 0.723618 15.9798L3.72908 14.1752L4.47455 13.4297H19.39Z" fill="#1A6FB7"/>
<path d="M1.49276 11.1918H2.23822C2.43409 11.1917 2.62806 11.2302 2.80905 11.3051C2.99004 11.38 3.1545 11.4898 3.29304 11.6282C3.43157 11.7667 3.54147 11.9311 3.61645 12.112C3.69144 12.293 3.73003 12.4869 3.73003 12.6828V14.1746H1.49276C1.29387 14.1794 1.09603 14.1444 0.910873 14.0716C0.72572 13.9988 0.556995 13.8897 0.414627 13.7508C0.272259 13.6118 0.159124 13.4458 0.0818805 13.2624C0.00463657 13.0791 -0.0351562 12.8822 -0.0351562 12.6832C-0.0351562 12.4843 0.00463657 12.2873 0.0818805 12.104C0.159124 11.9207 0.272259 11.7546 0.414627 11.6157C0.556995 11.4767 0.72572 11.3676 0.910873 11.2948C1.09603 11.222 1.29387 11.187 1.49276 11.1918Z" fill="#1A6FB7"/>
<path d="M4.47531 17.1563C4.67122 17.1563 4.8652 17.1948 5.0462 17.2698C5.22719 17.3448 5.39165 17.4547 5.53018 17.5932C5.6687 17.7317 5.77859 17.8962 5.85356 18.0772C5.92853 18.2582 5.96712 18.4522 5.96712 18.6481V20.1399C5.96712 20.3357 5.92852 20.5297 5.85354 20.7106C5.77856 20.8916 5.66866 21.056 5.53012 21.1944C5.39158 21.3329 5.22712 21.4427 5.04613 21.5176C4.86514 21.5924 4.67117 21.6309 4.47531 21.6308C4.07989 21.6308 3.70066 21.4737 3.42106 21.1941C3.14146 20.9145 2.98438 20.5353 2.98438 20.1399V18.6481C2.98426 18.4522 3.02274 18.2582 3.09762 18.0772C3.17249 17.8962 3.28229 17.7318 3.42075 17.5932C3.55921 17.4547 3.72361 17.3448 3.90455 17.2698C4.0855 17.1948 4.27944 17.1562 4.47531 17.1563Z" fill="#FF9C00"/>
<path d="M19.3901 20.889H9.69556C9.59759 20.8891 9.50056 20.8699 9.41001 20.8325C9.31947 20.7951 9.23719 20.7402 9.16787 20.671C9.09855 20.6017 9.04357 20.5195 9.00605 20.429C8.96853 20.3385 8.94922 20.2415 8.94922 20.1435C8.94922 19.8497 9.00709 19.5588 9.11952 19.2874C9.23195 19.0159 9.39675 18.7693 9.6045 18.5615C9.81225 18.3538 10.0589 18.189 10.3303 18.0766C10.6018 17.9641 10.8927 17.9063 11.1865 17.9062H19.3901V20.889Z" fill="white"/>
<path d="M35.797 2.98828H41.0179C41.3117 2.98828 41.6026 3.04615 41.8741 3.15858C42.1455 3.27102 42.3921 3.43581 42.5999 3.64356C42.8076 3.85131 42.9724 4.09795 43.0849 4.36939C43.1973 4.64083 43.2552 4.93175 43.2552 5.22555V30.581C43.2552 30.8748 43.1973 31.1658 43.0849 31.4372C42.9724 31.7086 42.8076 31.9553 42.5999 32.163C42.3921 32.3708 42.1455 32.5356 41.8741 32.648C41.6026 32.7604 41.3117 32.8183 41.0179 32.8183H21.6279C21.0345 32.8183 20.4655 32.5826 20.0459 32.163C19.6263 31.7434 19.3906 31.1744 19.3906 30.581V5.22555C19.3906 4.63219 19.6263 4.06313 20.0459 3.64356C20.4655 3.22399 21.0345 2.98828 21.6279 2.98828H35.797Z" fill="white"/>
<path d="M19.3894 5.22656V14.1757H3.72852L6.20437 6.75508C6.35205 6.31 6.63621 5.92276 7.0165 5.64838C7.39678 5.37399 7.85385 5.2264 8.32279 5.22656H19.3894Z" fill="#8CB7DB"/>
<path d="M25.3565 13.4311C25.1598 13.4303 24.9713 13.3517 24.8322 13.2126L23.3377 11.7208C23.1979 11.5811 23.1192 11.3915 23.1191 11.1937C23.1191 10.996 23.1975 10.8063 23.3373 10.6664C23.4771 10.5265 23.6667 10.4479 23.8644 10.4478C24.0621 10.4477 24.2518 10.5262 24.3917 10.666L25.2403 11.5146L27.7188 7.79686C27.7731 7.71537 27.843 7.64539 27.9244 7.5909C28.0057 7.53642 28.0971 7.4985 28.1931 7.4793C28.2892 7.46011 28.388 7.46002 28.4841 7.47905C28.5802 7.49807 28.6716 7.53583 28.7531 7.59017C28.8346 7.64451 28.9045 7.71437 28.959 7.79576C29.0135 7.87715 29.0514 7.96847 29.0706 8.06452C29.0898 8.16056 29.0899 8.25944 29.0709 8.35552C29.0519 8.4516 29.0141 8.54299 28.9598 8.62447L25.977 13.099C25.9162 13.1913 25.8357 13.269 25.7412 13.3264C25.6468 13.3839 25.5407 13.4196 25.4308 13.4311H25.3565Z" fill="#FF9C00"/>
<path d="M38.0335 10.448H31.3216C31.1239 10.448 30.9343 10.3694 30.7945 10.2296C30.6547 10.0898 30.5762 9.90021 30.5762 9.7025C30.5762 9.50479 30.6547 9.31518 30.7945 9.17537C30.9343 9.03557 31.1239 8.95703 31.3216 8.95703H38.0335C38.2312 8.95703 38.4208 9.03557 38.5606 9.17537C38.7004 9.31518 38.7789 9.50479 38.7789 9.7025C38.7789 9.90021 38.7004 10.0898 38.5606 10.2296C38.4208 10.3694 38.2312 10.448 38.0335 10.448Z" fill="#BBBACE"/>
<path d="M35.6615 13.4293H31.3224C31.129 13.4227 30.9457 13.3412 30.8112 13.202C30.6767 13.0629 30.6016 12.8769 30.6016 12.6834C30.6016 12.4899 30.6767 12.3039 30.8112 12.1648C30.9457 12.0256 31.129 11.9441 31.3224 11.9375H35.6615C35.8549 11.9441 36.0381 12.0256 36.1726 12.1648C36.3071 12.3039 36.3823 12.4899 36.3823 12.6834C36.3823 12.8769 36.3071 13.0629 36.1726 13.202C36.0381 13.3412 35.8549 13.4227 35.6615 13.4293Z" fill="#BBBACE"/>
<path d="M25.3563 20.8882C25.1596 20.8873 24.9711 20.8088 24.832 20.6697L23.341 19.1779C23.2066 19.037 23.1326 18.8492 23.1348 18.6545C23.1371 18.4598 23.2154 18.2737 23.3531 18.136C23.4908 17.9983 23.6769 17.9199 23.8716 17.9177C24.0663 17.9154 24.2542 17.9894 24.395 18.1239L25.2436 18.9725L27.7221 15.2539C27.8318 15.0893 28.0024 14.9751 28.1964 14.9363C28.3904 14.8976 28.5918 14.9375 28.7564 15.0472C28.9209 15.157 29.0352 15.3276 29.0739 15.5216C29.1127 15.7155 29.0728 15.9169 28.9631 16.0815L25.9803 20.5561C25.9191 20.6479 25.8383 20.725 25.7437 20.7819C25.6491 20.8387 25.5431 20.8738 25.4332 20.8847C25.4077 20.8877 25.382 20.8889 25.3563 20.8882Z" fill="#FF9C00"/>
<path d="M38.0342 17.9024H31.3224C31.129 17.8958 30.9457 17.8143 30.8112 17.6751C30.6767 17.536 30.6016 17.35 30.6016 17.1565C30.6016 16.963 30.6767 16.777 30.8112 16.6379C30.9457 16.4987 31.129 16.4172 31.3224 16.4106H38.0342C38.1343 16.4072 38.2341 16.4239 38.3275 16.4599C38.421 16.4958 38.5063 16.5502 38.5784 16.6198C38.6504 16.6894 38.7077 16.7728 38.7468 16.865C38.7859 16.9572 38.8061 17.0563 38.8061 17.1565C38.8061 17.2567 38.7859 17.3558 38.7468 17.448C38.7077 17.5402 38.6504 17.6236 38.5784 17.6932C38.5063 17.7628 38.421 17.8172 38.3275 17.8531C38.2341 17.8891 38.1343 17.9058 38.0342 17.9024Z" fill="#BBBACE"/>
<path d="M35.6615 20.8863H31.3224C31.129 20.8797 30.9457 20.7982 30.8112 20.6591C30.6767 20.5199 30.6016 20.334 30.6016 20.1404C30.6016 19.9469 30.6767 19.761 30.8112 19.6218C30.9457 19.4826 31.129 19.4012 31.3224 19.3945H35.6615C35.8549 19.4012 36.0381 19.4826 36.1726 19.6218C36.3071 19.761 36.3823 19.9469 36.3823 20.1404C36.3823 20.334 36.3071 20.5199 36.1726 20.6591C36.0381 20.7982 35.8549 20.8797 35.6615 20.8863Z" fill="#BBBACE"/>
<path d="M25.3565 28.3439C25.1598 28.343 24.9713 28.2645 24.8322 28.1254L23.3377 26.6371C23.1979 26.4973 23.1192 26.3077 23.1191 26.11C23.1191 25.9123 23.1975 25.7226 23.3373 25.5827C23.4771 25.4428 23.6667 25.3642 23.8644 25.3641C24.0621 25.364 24.2518 25.4425 24.3917 25.5823L25.2403 26.4309L27.7188 22.7123C27.7719 22.6279 27.8413 22.5549 27.9231 22.4978C28.0048 22.4407 28.0972 22.4006 28.1947 22.3797C28.2922 22.3589 28.3929 22.3578 28.4909 22.3766C28.5888 22.3953 28.682 22.4335 28.7649 22.4889C28.8479 22.5443 28.9189 22.6157 28.9737 22.699C29.0286 22.7822 29.0662 22.8756 29.0844 22.9737C29.1026 23.0718 29.1009 23.1725 29.0795 23.2698C29.0581 23.3672 29.0174 23.4594 28.9598 23.5408L25.977 28.0153C25.9162 28.1075 25.8356 28.185 25.7411 28.2423C25.6467 28.2996 25.5407 28.3352 25.4308 28.3465L25.3565 28.3439Z" fill="#FF9C00"/>
<path d="M38.0342 25.3633H31.3224C31.129 25.3567 30.9457 25.2752 30.8112 25.1361C30.6767 24.9969 30.6016 24.811 30.6016 24.6174C30.6016 24.4239 30.6767 24.238 30.8112 24.0988C30.9457 23.9596 31.129 23.8782 31.3224 23.8715H38.0342C38.1343 23.8681 38.2341 23.8849 38.3275 23.9208C38.421 23.9567 38.5063 24.0111 38.5784 24.0807C38.6504 24.1503 38.7077 24.2337 38.7468 24.3259C38.7859 24.4181 38.8061 24.5173 38.8061 24.6174C38.8061 24.7176 38.7859 24.8167 38.7468 24.9089C38.7077 25.0011 38.6504 25.0845 38.5784 25.1541C38.5063 25.2237 38.421 25.2781 38.3275 25.3141C38.2341 25.35 38.1343 25.3668 38.0342 25.3633Z" fill="#BBBACE"/>
<path d="M35.6607 28.3425H31.3216C31.1239 28.3425 30.9343 28.264 30.7945 28.1242C30.6547 27.9844 30.5762 27.7947 30.5762 27.597C30.5762 27.3993 30.6547 27.2097 30.7945 27.0699C30.9343 26.9301 31.1239 26.8516 31.3216 26.8516H35.6607C35.8584 26.8516 36.048 26.9301 36.1879 27.0699C36.3277 27.2097 36.4062 27.3993 36.4062 27.597C36.4062 27.7947 36.3277 27.9844 36.1879 28.1242C36.048 28.264 35.8584 28.3425 35.6607 28.3425Z" fill="#BBBACE"/>
<path d="M19.3906 25.3629H10.4415C10.2481 25.3563 10.0648 25.2748 9.93035 25.1356C9.79587 24.9965 9.7207 24.8105 9.7207 24.617C9.7207 24.4235 9.79587 24.2375 9.93035 24.0984C10.0648 23.9592 10.2481 23.8777 10.4415 23.8711H19.3906C19.584 23.8777 19.7673 23.9592 19.9018 24.0984C20.0362 24.2375 20.1114 24.4235 20.1114 24.617C20.1114 24.8105 20.0362 24.9965 19.9018 25.1356C19.7673 25.2748 19.584 25.3563 19.3906 25.3629Z" fill="white"/>
<path d="M5.22042 25.3629H3.72862C3.53521 25.3563 3.35194 25.2748 3.21746 25.1356C3.08298 24.9965 3.00781 24.8105 3.00781 24.617C3.00781 24.4235 3.08298 24.2375 3.21746 24.0984C3.35194 23.9592 3.53521 23.8777 3.72862 23.8711H5.22042C5.41383 23.8777 5.5971 23.9592 5.73158 24.0984C5.86606 24.2375 5.94123 24.4235 5.94123 24.617C5.94123 24.8105 5.86606 24.9965 5.73158 25.1356C5.5971 25.2748 5.41383 25.3563 5.22042 25.3629Z" fill="#FF9C00"/>
<path d="M41.0173 2.24219H21.6273C20.8362 2.24219 20.0775 2.55644 19.5182 3.11581C18.9588 3.67518 18.6445 4.43386 18.6445 5.22493V30.5804C18.6445 31.3716 18.9588 32.1303 19.5181 32.6898C20.0775 33.2493 20.8361 33.5638 21.6273 33.564H41.0173C41.8084 33.5638 42.5671 33.2493 43.1264 32.6898C43.6858 32.1303 44 31.3716 44 30.5804V5.22493C44 4.43386 43.6858 3.67518 43.1264 3.11581C42.567 2.55644 41.8083 2.24219 41.0173 2.24219ZM42.5082 30.5804C42.5073 30.9756 42.3499 31.3544 42.0705 31.6339C41.7912 31.9135 41.4125 32.0711 41.0173 32.0722H21.6273C21.232 32.0711 20.8532 31.9135 20.5737 31.634C20.2942 31.3545 20.1366 30.9757 20.1355 30.5804V5.22493C20.1368 4.8297 20.2945 4.45106 20.5739 4.17159C20.8534 3.89212 21.232 3.7345 21.6273 3.73312H41.0173C41.4124 3.7345 41.791 3.89215 42.0703 4.17164C42.3496 4.45113 42.507 4.82978 42.5082 5.22493V30.5804Z" fill="#AA6800"/>
<path d="M35.7967 2.24337V3.73431C35.7969 3.83228 35.7777 3.92931 35.7403 4.01985C35.7028 4.1104 35.648 4.19268 35.5787 4.26199C35.5095 4.33131 35.4273 4.3863 35.3368 4.42382C35.2463 4.46134 35.1493 4.48065 35.0513 4.48065H27.594C27.3961 4.48065 27.2062 4.40201 27.0663 4.26205C26.9263 4.12208 26.8477 3.93225 26.8477 3.73431V2.24337C26.8477 2.04543 26.9263 1.8556 27.0663 1.71563C27.2062 1.57566 27.3961 1.49703 27.594 1.49703H28.5186C28.802 1.01321 29.2141 0.617607 29.7092 0.354348C30.2042 0.0910894 30.7626 -0.0294759 31.3222 0.00609907C31.8827 -0.0287566 32.442 0.0920508 32.9381 0.355168C33.4343 0.618286 33.848 1.01347 34.1337 1.49703H35.0513C35.1493 1.49703 35.2463 1.51634 35.3368 1.55386C35.4273 1.59138 35.5095 1.64637 35.5787 1.71568C35.648 1.785 35.7028 1.86728 35.7403 1.95783C35.7777 2.04837 35.7969 2.1454 35.7967 2.24337Z" fill="#AA6800"/>
</g>
<defs>
<clipPath id="clip0_4063_48803">
<rect width="44" height="33.5652" fill="white"/>
</clipPath>
</defs>
</svg>
