<svg width="44" height="44" viewBox="0 0 44 44" fill="none" xmlns="http://www.w3.org/2000/svg">
<g clip-path="url(#clip0_4063_48829)">
<path d="M23.0992 7.89017H9.69704C9.33576 7.89017 9.04297 7.59738 9.04297 7.2361C9.04297 6.87482 9.33584 6.58203 9.69704 6.58203H23.0992C23.4604 6.58203 23.7533 6.87482 23.7533 7.2361C23.7533 7.59738 23.4605 7.89017 23.0992 7.89017Z" fill="#FF9C00"/>
<path d="M10.2889 12.6831H3.3904C3.02912 12.6831 2.73633 12.3904 2.73633 12.0291C2.73633 11.6678 3.0292 11.375 3.3904 11.375H10.2889C10.6502 11.375 10.943 11.6678 10.943 12.0291C10.943 12.3904 10.6502 12.6831 10.2889 12.6831Z" fill="#FF9C00"/>
<path d="M10.053 17.1402H7.3279C6.96662 17.1402 6.67383 16.8474 6.67383 16.4861C6.67383 16.1248 6.9667 15.832 7.3279 15.832H10.0531C10.4143 15.832 10.7071 16.1248 10.7071 16.4861C10.7071 16.8474 10.4143 17.1402 10.053 17.1402Z" fill="#FF9C00"/>
<path d="M7.32712 20.3706H0.65407C0.292789 20.3706 0 20.0779 0 19.7166C0 19.3553 0.292875 19.0625 0.65407 19.0625H7.32703C7.68831 19.0625 7.9811 19.3553 7.9811 19.7166C7.9811 20.0779 7.68831 20.3706 7.32712 20.3706Z" fill="#FF9C00"/>
<path d="M23.9713 37.4137H9.69704C9.33576 37.4137 9.04297 37.1209 9.04297 36.7595C9.04297 36.3982 9.33584 36.1055 9.69704 36.1055H23.9713C24.3326 36.1055 24.6254 36.3983 24.6254 36.7595C24.6254 37.1208 24.3326 37.4137 23.9713 37.4137Z" fill="#FF9C00"/>
<path d="M10.2889 32.6207H3.3904C3.02912 32.6207 2.73633 32.3279 2.73633 31.9667C2.73633 31.6054 3.0292 31.3125 3.3904 31.3125H10.2889C10.6502 31.3125 10.943 31.6053 10.943 31.9667C10.943 32.328 10.6502 32.6207 10.2889 32.6207Z" fill="#FF9C00"/>
<path d="M10.053 28.1637H7.3279C6.96662 28.1637 6.67383 27.8709 6.67383 27.5095C6.67383 27.1482 6.9667 26.8555 7.3279 26.8555H10.0531C10.4143 26.8555 10.7071 27.1483 10.7071 27.5095C10.7071 27.8708 10.4143 28.1637 10.053 28.1637Z" fill="#FF9C00"/>
<path d="M7.32712 24.9371H0.65407C0.292789 24.9371 0 24.6443 0 24.2831C0 23.9218 0.292875 23.6289 0.65407 23.6289H7.32703C7.68831 23.6289 7.9811 23.9217 7.9811 24.2831C7.9811 24.6444 7.68831 24.9371 7.32712 24.9371Z" fill="#FF9C00"/>
<path d="M27.8686 38.1317C36.7782 38.1317 44.0009 30.9091 44.0009 21.9995C44.0009 13.0899 36.7782 5.86719 27.8686 5.86719C18.959 5.86719 11.7363 13.0899 11.7363 21.9995C11.7363 30.9091 18.959 38.1317 27.8686 38.1317Z" fill="#1A6FB7"/>
<path d="M27.8681 5.86719C27.4597 5.86719 27.055 5.88266 26.6543 5.91248C34.9969 6.53312 41.5728 13.4982 41.5728 21.9995C41.5728 30.5007 34.9969 37.4658 26.6543 38.0864C27.055 38.1163 27.4597 38.1317 27.8681 38.1317C36.7777 38.1317 44.0004 30.9091 44.0004 21.9995C44.0004 13.0898 36.7777 5.86719 27.8681 5.86719Z" fill="#FF9C00"/>
<path d="M27.8678 34.388C34.7092 34.388 40.2552 28.842 40.2552 22.0007C40.2552 15.1593 34.7092 9.61328 27.8678 9.61328C21.0265 9.61328 15.4805 15.1593 15.4805 22.0007C15.4805 28.842 21.0265 34.388 27.8678 34.388Z" fill="#F4FBFF"/>
<path d="M27.8679 9.61328C27.491 9.61328 27.1183 9.63107 26.75 9.66407C33.0674 10.2293 38.0195 15.5363 38.0195 22.0007C38.0195 28.4652 33.0674 33.7721 26.75 34.3373C27.1183 34.3702 27.491 34.388 27.8679 34.388C34.7093 34.388 40.2553 28.8421 40.2553 22.0007C40.2553 15.1593 34.7093 9.61328 27.8679 9.61328Z" fill="#DAF1F4"/>
<path d="M27.869 14.1348C27.5077 14.1348 27.2148 13.842 27.2148 13.4807V12.4822C27.2148 12.1209 27.5076 11.8281 27.869 11.8281C28.2304 11.8281 28.5231 12.1209 28.5231 12.4822V13.4806C28.5231 13.8419 28.2303 14.1348 27.869 14.1348Z" fill="#365E7D"/>
<path d="M33.8905 16.6313C33.7232 16.6313 33.5557 16.5675 33.4279 16.4398C33.1725 16.1843 33.1725 15.7701 33.4279 15.5147L34.1339 14.8087C34.3894 14.5534 34.8035 14.5534 35.059 14.8087C35.3144 15.0642 35.3144 15.4783 35.059 15.7338L34.353 16.4398C34.2253 16.5675 34.0579 16.6313 33.8905 16.6313Z" fill="#365E7D"/>
<path d="M37.3849 22.652H36.3866C36.0253 22.652 35.7324 22.3592 35.7324 21.9978C35.7324 21.6365 36.0252 21.3438 36.3866 21.3438H37.3849C37.7462 21.3438 38.0391 21.6365 38.0391 21.9978C38.0391 22.3591 37.7462 22.652 37.3849 22.652Z" fill="#365E7D"/>
<path d="M34.5965 29.3813C34.4291 29.3813 34.2617 29.3175 34.1339 29.1898L33.4279 28.4838C33.1725 28.2283 33.1725 27.8142 33.4279 27.5587C33.6834 27.3034 34.0975 27.3034 34.353 27.5587L35.059 28.2647C35.3144 28.5201 35.3144 28.9343 35.059 29.1898C34.9313 29.3175 34.7639 29.3813 34.5965 29.3813Z" fill="#365E7D"/>
<path d="M27.869 32.1698C27.5077 32.1698 27.2148 31.8771 27.2148 31.5157V30.5174C27.2148 30.1561 27.5076 29.8633 27.869 29.8633C28.2304 29.8633 28.5231 30.1561 28.5231 30.5174V31.5157C28.5231 31.8771 28.2303 32.1698 27.869 32.1698Z" fill="#365E7D"/>
<path d="M21.1385 29.3813C20.9711 29.3813 20.8037 29.3175 20.676 29.1898C20.4205 28.9343 20.4205 28.5201 20.676 28.2647L21.382 27.5587C21.6374 27.3034 22.0516 27.3034 22.307 27.5587C22.5625 27.8142 22.5625 28.2283 22.307 28.4838L21.601 29.1898C21.4733 29.3175 21.3059 29.3813 21.1385 29.3813Z" fill="#365E7D"/>
<path d="M19.3498 22.652H18.3513C17.9901 22.652 17.6973 22.3592 17.6973 21.9978C17.6973 21.6365 17.9901 21.3438 18.3513 21.3438H19.3498C19.711 21.3438 20.0038 21.6365 20.0038 21.9978C20.0038 22.3591 19.711 22.652 19.3498 22.652Z" fill="#365E7D"/>
<path d="M21.8445 16.6313C21.6771 16.6313 21.5097 16.5675 21.382 16.4398L20.676 15.7338C20.4205 15.4783 20.4205 15.0642 20.676 14.8087C20.9314 14.5534 21.3456 14.5534 21.601 14.8087L22.307 15.5147C22.5625 15.7701 22.5625 16.1843 22.307 16.4398C22.1793 16.5675 22.0119 16.6313 21.8445 16.6313Z" fill="#365E7D"/>
<path d="M30.7303 22.6547H27.867C27.5058 22.6547 27.2129 22.3619 27.2129 22.0006V16.49C27.2129 16.1287 27.5057 15.8359 27.867 15.8359C28.2284 15.8359 28.5211 16.1287 28.5211 16.49V21.3464H30.7303C31.0916 21.3464 31.3845 21.6392 31.3845 22.0005C31.3845 22.3618 31.0916 22.6547 30.7303 22.6547Z" fill="#2B4D66"/>
</g>
<defs>
<clipPath id="clip0_4063_48829">
<rect width="44" height="44" fill="white"/>
</clipPath>
</defs>
</svg>
