<svg width="44" height="44" viewBox="0 0 44 44" fill="none" xmlns="http://www.w3.org/2000/svg">
<path d="M27.5 30.6322V28.1875C27.5 26.2921 29.0421 24.75 30.9375 24.75H33V6.875H27.9586C25.8761 6.875 23.8494 6.19987 22.1836 4.95L19.25 2.75L16.3164 4.95C14.6506 6.19987 12.6239 6.875 10.5414 6.875H5.5V25.9937C5.5 30.3407 7.78044 34.3688 11.5081 36.6053L19.25 41.25C19.25 41.25 24.1058 38.3364 26.125 37.125V33C26.125 31.9866 26.6819 31.1094 27.5 30.6322Z" fill="#1A6FB7"/>
<path d="M19.25 31.625C13.9342 31.625 9.625 27.3158 9.625 22C9.625 16.6842 13.9342 12.375 19.25 12.375C24.5658 12.375 28.875 16.6842 28.875 22C28.875 27.3158 24.5658 31.625 19.25 31.625Z" fill="white"/>
<path d="M14.2581 36.6046C10.5304 34.3681 8.25 30.3401 8.25 25.9937V6.875H5.5V25.9937C5.5 30.3407 7.78044 34.3688 11.5081 36.6052L19.25 41.25L20.625 40.425L14.2581 36.6046Z" fill="#FF9C00"/>
<path d="M24.4062 19.9375L18.2188 26.125L14.0938 22L16.1562 19.9375L18.2188 22L22.3438 17.875L24.4062 19.9375Z" fill="#FF9C00"/>
<path d="M37.125 41.25H28.875C28.1153 41.25 27.5 40.6347 27.5 39.875V33C27.5 32.2403 28.1153 31.625 28.875 31.625H37.125C37.8847 31.625 38.5 32.2403 38.5 33V39.875C38.5 40.6347 37.8847 41.25 37.125 41.25Z" fill="#FF9C00"/>
<path d="M28.875 39.875V33C28.875 32.2403 29.4903 31.625 30.25 31.625H28.875C28.1153 31.625 27.5 32.2403 27.5 33V39.875C27.5 40.6347 28.1153 41.25 28.875 41.25H30.25C29.491 41.25 28.875 40.6347 28.875 39.875Z" fill="#DC9600"/>
<path d="M30.25 31.625V28.1875C30.25 27.808 30.558 27.5 30.9375 27.5H35.0625C35.442 27.5 35.75 27.808 35.75 28.1875V31.625H37.125V28.1875C37.125 27.0483 36.2017 26.125 35.0625 26.125H30.9375C29.7983 26.125 28.875 27.0483 28.875 28.1875V31.625H30.25Z" fill="#505050"/>
<path d="M34.375 35.75C34.375 34.9903 33.7597 34.375 33 34.375C32.2403 34.375 31.625 34.9903 31.625 35.75C31.625 36.2574 31.9034 36.696 32.3125 36.9346V37.8125C32.3125 38.192 32.6205 38.5 33 38.5C33.3795 38.5 33.6875 38.192 33.6875 37.8125V36.9346C34.0966 36.696 34.375 36.2574 34.375 35.75Z" fill="#BE7800"/>
</svg>
