<svg width="52" height="54" viewBox="0 0 52 54" fill="none" xmlns="http://www.w3.org/2000/svg">
    <path d="M24.9692 45.0007H4.39869C2.4105 45.0007 0.798828 43.3889 0.798828 41.4009V37.8008H28.4271L24.9692 45.0007Z" fill="#D1E2F1"/>
    <path d="M47.6023 16.1993V31.3233V41.3992H4.39869C2.4105 41.3992 0.798828 39.7874 0.798828 37.7992V16.1993L26.0006 7.19922L47.6023 16.1993Z" fill="#EDEFF5"/>
    <path d="M7.15661 23.4007H5.24414C4.77818 23.4007 4.40039 23.023 4.40039 22.557V20.6445C4.40039 20.1786 4.77818 19.8008 5.24414 19.8008H7.15661C7.62257 19.8008 8.00036 20.1786 8.00036 20.6445V22.557C8.00036 23.023 7.62257 23.4007 7.15661 23.4007Z" fill="#1A6FB7"/>
    <path d="M14.3568 23.4007H12.4443C11.9784 23.4007 11.6006 23.023 11.6006 22.557V20.6445C11.6006 20.1786 11.9784 19.8008 12.4443 19.8008H14.3568C14.8228 19.8008 15.2006 20.1786 15.2006 20.6445V22.557C15.2006 23.023 14.8228 23.4007 14.3568 23.4007Z" fill="#1A6FB7"/>
    <path d="M21.557 23.4007H19.6445C19.1786 23.4007 18.8008 23.023 18.8008 22.557V20.6445C18.8008 20.1786 19.1786 19.8008 19.6445 19.8008H21.557C22.023 19.8008 22.4007 20.1786 22.4007 20.6445V22.557C22.4007 23.023 22.0231 23.4007 21.557 23.4007Z" fill="#FFBD55"/>
    <path d="M28.7562 23.4007H26.8438C26.3778 23.4007 26 23.023 26 22.557V20.6445C26 20.1786 26.3778 19.8008 26.8438 19.8008H28.7562C29.2222 19.8008 29.6 20.1786 29.6 20.6445V22.557C29.6 23.023 29.2222 23.4007 28.7562 23.4007Z" fill="#1A6FB7"/>
    <path d="M35.9554 23.4007H34.043C33.577 23.4007 33.1992 23.023 33.1992 22.557V20.6445C33.1992 20.1786 33.577 19.8008 34.043 19.8008H35.9554C36.4214 19.8008 36.7992 20.1786 36.7992 20.6445V22.557C36.7992 23.023 36.4215 23.4007 35.9554 23.4007Z" fill="#1A6FB7"/>
    <path d="M43.1556 23.4007H41.2432C40.7772 23.4007 40.3994 23.023 40.3994 22.557V20.6445C40.3994 20.1786 40.7772 19.8008 41.2432 19.8008H43.1556C43.6216 19.8008 43.9994 20.1786 43.9994 20.6445V22.557C43.9994 23.023 43.6216 23.4007 43.1556 23.4007Z" fill="#1A6FB7"/>
    <path d="M7.15661 30.6H5.24414C4.77818 30.6 4.40039 30.2222 4.40039 29.7562V27.8438C4.40039 27.3778 4.77818 27 5.24414 27H7.15661C7.62257 27 8.00036 27.3778 8.00036 27.8438V29.7562C8.00036 30.2223 7.62257 30.6 7.15661 30.6Z" fill="#1A6FB7"/>
    <path d="M14.3568 30.6H12.4443C11.9784 30.6 11.6006 30.2222 11.6006 29.7562V27.8438C11.6006 27.3778 11.9784 27 12.4443 27H14.3568C14.8228 27 15.2006 27.3778 15.2006 27.8438V29.7562C15.2006 30.2223 14.8228 30.6 14.3568 30.6Z" fill="#1A6FB7"/>
    <path d="M21.557 30.6H19.6445C19.1786 30.6 18.8008 30.2222 18.8008 29.7562V27.8438C18.8008 27.3778 19.1786 27 19.6445 27H21.557C22.023 27 22.4007 27.3778 22.4007 27.8438V29.7562C22.4007 30.2223 22.0231 30.6 21.557 30.6Z" fill="#1A6FB7"/>
    <path d="M29.6 30.6V27.9C29.6 27.4029 29.1971 27 28.7 27H26.9C26.4029 27 26 27.4029 26 27.9V29.7C26 30.1971 26.403 30.6 26.9 30.6H29.6Z" fill="#1A6FB7"/>
    <path d="M7.15661 37.7992H5.24414C4.77818 37.7992 4.40039 37.4214 4.40039 36.9554V35.043C4.40039 34.577 4.77818 34.1992 5.24414 34.1992H7.15661C7.62257 34.1992 8.00036 34.577 8.00036 35.043V36.9554C8.00036 37.4214 7.62257 37.7992 7.15661 37.7992Z" fill="#1A6FB7"/>
    <path d="M14.3568 37.7992H12.4443C11.9784 37.7992 11.6006 37.4214 11.6006 36.9554V35.043C11.6006 34.577 11.9784 34.1992 12.4443 34.1992H14.3568C14.8228 34.1992 15.2006 34.577 15.2006 35.043V36.9554C15.2006 37.4214 14.8228 37.7992 14.3568 37.7992Z" fill="#1A6FB7"/>
    <path d="M21.557 37.7992H19.6445C19.1786 37.7992 18.8008 37.4214 18.8008 36.9554V35.043C18.8008 34.577 19.1786 34.1992 19.6445 34.1992H21.557C22.023 34.1992 22.4007 34.577 22.4007 35.043V36.9554C22.4007 37.4214 22.0231 37.7992 21.557 37.7992Z" fill="#1A6FB7"/>
    <path d="M43.1295 19.8008H41.2679C41.1553 19.8008 41.048 19.8229 40.9492 19.8618C41.2714 19.989 41.4997 20.3025 41.4997 20.6699V22.5315C41.4997 22.8989 41.2713 23.2124 40.9492 23.3396C41.048 23.3786 41.1553 23.4007 41.2679 23.4007H43.1295C43.6096 23.4007 43.9987 23.0116 43.9987 22.5316V20.6701C43.9986 20.19 43.6095 19.8008 43.1295 19.8008Z" fill="#114A7A"/>
    <path d="M35.9293 19.8008H34.0678C33.9551 19.8008 33.8478 19.8229 33.749 19.8618C34.0712 19.989 34.2995 20.3025 34.2995 20.6699V22.5315C34.2995 22.8989 34.0711 23.2124 33.749 23.3396C33.8478 23.3786 33.9551 23.4007 34.0678 23.4007H35.9293C36.4094 23.4007 36.7984 23.0116 36.7984 22.5316V20.6701C36.7984 20.19 36.4094 19.8008 35.9293 19.8008Z" fill="#114A7A"/>
    <path d="M28.731 19.8008H26.8695C26.7569 19.8008 26.6496 19.8229 26.5508 19.8618C26.873 19.989 27.1013 20.3025 27.1013 20.6699V22.5315C27.1013 22.8989 26.873 23.2124 26.5508 23.3396C26.6496 23.3786 26.7569 23.4007 26.8695 23.4007H28.731C29.2111 23.4007 29.6003 23.0116 29.6003 22.5316V20.6701C29.6002 20.19 29.211 19.8008 28.731 19.8008Z" fill="#114A7A"/>
    <path d="M21.5308 19.8008H19.6693C19.5567 19.8008 19.4494 19.8229 19.3506 19.8618C19.6728 19.989 19.9011 20.3025 19.9011 20.6699V22.5315C19.9011 22.8989 19.6728 23.2124 19.3506 23.3396C19.4494 23.3786 19.5567 23.4007 19.6693 23.4007H21.5308C22.0109 23.4007 22.4001 23.0116 22.4001 22.5316V20.6701C22.4 20.19 22.0109 19.8008 21.5308 19.8008Z" fill="#FF9C00"/>
    <path d="M14.3306 19.8008H12.4691C12.3565 19.8008 12.2492 19.8229 12.1504 19.8618C12.4726 19.989 12.7008 20.3025 12.7008 20.6699V22.5315C12.7008 22.8989 12.4725 23.2124 12.1504 23.3396C12.2492 23.3786 12.3565 23.4007 12.4691 23.4007H14.3306C14.8107 23.4007 15.1999 23.0116 15.1999 22.5316V20.6701C15.1999 20.19 14.8107 19.8008 14.3306 19.8008Z" fill="#114A7A"/>
    <path d="M7.13045 19.8008H5.26892C5.15628 19.8008 5.04902 19.8229 4.9502 19.8618C5.2724 19.989 5.50074 20.3025 5.50074 20.6699V22.5315C5.50074 22.8989 5.2724 23.2124 4.9502 23.3396C5.04902 23.3786 5.15628 23.4007 5.26892 23.4007H7.13045C7.61054 23.4007 7.99972 23.0116 7.99972 22.5316V20.6701C7.99961 20.19 7.61043 19.8008 7.13045 19.8008Z" fill="#114A7A"/>
    <path d="M7.13045 27H5.26892C5.15628 27 5.04902 27.0221 4.9502 27.0611C5.2724 27.1883 5.50074 27.5017 5.50074 27.8692V29.7308C5.50074 30.0982 5.2724 30.4117 4.9502 30.5389C5.04902 30.5779 5.15628 30.6001 5.26892 30.6001H7.13045C7.61054 30.6001 7.99972 30.2109 7.99972 29.7309V27.8693C7.99961 27.3892 7.61043 27 7.13045 27Z" fill="#114A7A"/>
    <path d="M7.13045 34.1992H5.26892C5.15628 34.1992 5.04902 34.2214 4.9502 34.2603C5.2724 34.3875 5.50074 34.7009 5.50074 35.0684V36.93C5.50074 37.2975 5.2724 37.6109 4.9502 37.7381C5.04902 37.7771 5.15628 37.7993 5.26892 37.7993H7.13045C7.61054 37.7993 7.99972 37.4101 7.99972 36.9301V35.0685C7.99961 34.5883 7.61043 34.1992 7.13045 34.1992Z" fill="#114A7A"/>
    <path d="M14.3306 27H12.4691C12.3565 27 12.2492 27.0221 12.1504 27.0611C12.4726 27.1883 12.7008 27.5017 12.7008 27.8692V29.7308C12.7008 30.0982 12.4725 30.4117 12.1504 30.5389C12.2492 30.5779 12.3565 30.6001 12.4691 30.6001H14.3306C14.8107 30.6001 15.1999 30.2109 15.1999 29.7309V27.8693C15.1999 27.3892 14.8107 27 14.3306 27Z" fill="#114A7A"/>
    <path d="M14.3306 34.1992H12.4691C12.3565 34.1992 12.2492 34.2214 12.1504 34.2603C12.4726 34.3875 12.7008 34.7009 12.7008 35.0684V36.93C12.7008 37.2975 12.4725 37.6109 12.1504 37.7381C12.2492 37.7771 12.3565 37.7993 12.4691 37.7993H14.3306C14.8107 37.7993 15.1999 37.4101 15.1999 36.9301V35.0685C15.1999 34.5883 14.8107 34.1992 14.3306 34.1992Z" fill="#114A7A"/>
    <path d="M21.5308 27H19.6693C19.5567 27 19.4494 27.0221 19.3506 27.0611C19.6728 27.1883 19.9011 27.5017 19.9011 27.8692V29.7308C19.9011 30.0982 19.6728 30.4117 19.3506 30.5389C19.4494 30.5779 19.5567 30.6001 19.6693 30.6001H21.5308C22.0109 30.6001 22.4001 30.2109 22.4001 29.7309V27.8693C22.4 27.3892 22.0109 27 21.5308 27Z" fill="#114A7A"/>
    <path d="M29.6003 30.6V27.8692C29.6003 27.3891 29.2111 27 28.731 27H26.8695C26.7569 27 26.6496 27.0221 26.5508 27.0611C26.873 27.1883 27.1013 27.5017 27.1013 27.8692V29.7308C27.1013 30.0982 26.873 30.4117 26.5508 30.5389C26.6496 30.5779 26.7569 30.6001 26.8695 30.6001H29.6003V30.6Z" fill="#114A7A"/>
    <path d="M21.5308 34.1992H19.6693C19.5567 34.1992 19.4494 34.2214 19.3506 34.2603C19.6728 34.3875 19.9011 34.7009 19.9011 35.0684V36.93C19.9011 37.2975 19.6728 37.6109 19.3506 37.7381C19.4494 37.7771 19.5567 37.7993 19.6693 37.7993H21.5308C22.0109 37.7993 22.4001 37.4101 22.4001 36.9301V35.0685C22.4 34.5883 22.0109 34.1992 21.5308 34.1992Z" fill="#114A7A"/>
    <path d="M45.1016 15.1562V31.3222V41.3981H47.6023V31.3222V16.1982L45.1016 15.1562Z" fill="#D1E2F1"/>
    <path d="M47.6023 16.2015V7.20142C47.6023 5.21323 45.9905 3.60156 44.0024 3.60156H4.39869C2.4105 3.60156 0.798828 5.21323 0.798828 7.20142V16.2015H47.6023Z" fill="#1A6FB7"/>
    <path d="M12.1424 8.01642H9.79923C9.34909 8.01642 8.98438 7.65161 8.98438 7.20157C8.98438 6.75153 9.34919 6.38672 9.79923 6.38672H12.1424C12.5926 6.38672 12.9573 6.75153 12.9573 7.20157C12.9573 7.65161 12.5925 8.01642 12.1424 8.01642Z" fill="#1A6FB7"/>
    <path d="M17.8993 8.01642H15.5561C15.1059 8.01642 14.7412 7.65161 14.7412 7.20157C14.7412 6.75153 15.106 6.38672 15.5561 6.38672H17.8993C18.3494 6.38672 18.7141 6.75153 18.7141 7.20157C18.7141 7.65161 18.3494 8.01642 17.8993 8.01642Z" fill="#1A6FB7"/>
    <path d="M32.8437 8.01642H30.5004C30.0503 8.01642 29.6855 7.65161 29.6855 7.20157C29.6855 6.75153 30.0504 6.38672 30.5004 6.38672H32.8437C33.2938 6.38672 33.6586 6.75153 33.6586 7.20157C33.6586 7.65161 33.2938 8.01642 32.8437 8.01642Z" fill="#1A6FB7"/>
    <path d="M38.6005 8.01642H36.2572C35.8071 8.01642 35.4424 7.65161 35.4424 7.20157C35.4424 6.75153 35.8072 6.38672 36.2572 6.38672H38.6005C39.0507 6.38672 39.4154 6.75153 39.4154 7.20157C39.4154 7.65161 39.0506 8.01642 38.6005 8.01642Z" fill="#1A6FB7"/>
    <path d="M16.0986 6.75C16.0986 7.99263 15.0912 8.99996 13.8486 8.99996C12.606 8.99996 11.5986 7.99263 11.5986 6.75V2.24996C11.5985 1.00733 12.6059 0 13.8485 0C15.0911 0 16.0985 1.00733 16.0985 2.24996V6.75H16.0986Z" fill="#EDEFF5"/>
    <path d="M36.7998 6.75C36.7998 7.99263 35.7925 8.99996 34.5499 8.99996C33.3072 8.99996 32.2998 7.99263 32.2998 6.75V2.24996C32.2998 1.00733 33.3071 0 34.5498 0C35.7924 0 36.7997 1.00733 36.7997 2.24996V6.75H36.7998Z" fill="#EDEFF5"/>
    <path d="M34.5501 0C34.0881 0 33.6591 0.139641 33.3018 0.378422C33.9056 0.781945 34.3035 1.46929 34.3035 2.25007V6.75C34.3035 7.53068 33.9056 8.21813 33.3018 8.62165C33.659 8.86032 34.0881 9.00007 34.5501 9.00007C35.7927 9.00007 36.8001 7.99274 36.8001 6.75011V2.24996C36.8002 1.00733 35.7928 0 34.5501 0V0Z" fill="#D1E2F1"/>
    <path d="M13.8489 0C13.387 0 12.9579 0.139641 12.6006 0.378422C13.2044 0.781945 13.6023 1.46929 13.6023 2.25007V6.75C13.6023 7.53068 13.2044 8.21813 12.6006 8.62165C12.9578 8.86032 13.387 9.00007 13.8489 9.00007C15.0915 9.00007 16.0989 7.99274 16.0989 6.75011V2.24996C16.099 1.00733 15.0917 0 13.8489 0V0Z" fill="#D1E2F1"/>
    <path d="M44.0029 3.60156H41.5029C43.4911 3.60156 45.1028 5.21323 45.1028 7.20142V16.2016H47.6026V7.20153C47.6027 5.21334 45.9909 3.60156 44.0029 3.60156Z" fill="#0D385C"/>
    <path d="M0.798828 11.7852H47.6024V13.415H0.798828V11.7852Z" fill="#0D385C"/>
    <path d="M37.7002 54C45.156 54 51.2002 47.9558 51.2002 40.5C51.2002 33.0442 45.156 27 37.7002 27C30.2443 27 24.2002 33.0442 24.2002 40.5C24.2002 47.9558 30.2443 54 37.7002 54Z" fill="#FFBD55"/>
    <path d="M37.7008 50.4016C43.1685 50.4016 47.6008 45.9692 47.6008 40.5016C47.6008 35.034 43.1685 30.6016 37.7008 30.6016C32.2332 30.6016 27.8008 35.034 27.8008 40.5016C27.8008 45.9692 32.2332 50.4016 37.7008 50.4016Z" fill="#EDEFF5"/>
    <path d="M37.7006 39.5165C37.2505 39.5165 36.8857 39.1516 36.8857 38.7016V34.2016C36.8857 33.7515 37.2506 33.3867 37.7006 33.3867C38.1507 33.3867 38.5154 33.7515 38.5154 34.2016V38.7016C38.5154 39.1516 38.1506 39.5165 37.7006 39.5165Z" fill="#1A6FB7"/>
    <path d="M42.2005 41.3133H39.5004C39.0503 41.3133 38.6855 40.9485 38.6855 40.4984C38.6855 40.0484 39.0504 39.6836 39.5004 39.6836H42.2005C42.6506 39.6836 43.0154 40.0484 43.0154 40.4984C43.0154 40.9485 42.6505 41.3133 42.2005 41.3133Z" fill="#1A6FB7"/>
    <path d="M37.7008 27C37.2794 27 36.8628 27.0204 36.4513 27.0581C43.3212 27.6887 48.7017 33.4656 48.7017 40.5C48.7017 47.5344 43.3211 53.3113 36.4512 53.9419C36.8627 53.9796 37.2793 54 37.7007 54C45.1565 54 51.2007 47.9558 51.2007 40.5C51.2007 33.0442 45.1566 27 37.7008 27Z" fill="#FF9C00"/>
    <path d="M37.7008 30.6016C37.2779 30.6016 36.8612 30.6282 36.4521 30.6797C41.3303 31.2936 45.1035 35.4569 45.1035 40.5016C45.1035 45.5463 41.3303 49.7095 36.4521 50.3235C36.8612 50.375 37.2779 50.4016 37.7008 50.4016C43.1684 50.4016 47.6008 45.9692 47.6008 40.5016C47.6008 35.034 43.1684 30.6016 37.7008 30.6016Z" fill="#D1E2F1"/>
    <path d="M37.7004 42.2993C38.6946 42.2993 39.5005 41.4934 39.5005 40.4993C39.5005 39.5051 38.6946 38.6992 37.7004 38.6992C36.7063 38.6992 35.9004 39.5051 35.9004 40.4993C35.9004 41.4934 36.7063 42.2993 37.7004 42.2993Z" fill="#FFCD80"/>
</svg>