<svg width="54" height="50" viewBox="0 0 54 50" fill="none" xmlns="http://www.w3.org/2000/svg">
<g clipPath="url(#clip0_3999_45830)">
<path d="M8.69168 24.5684L0 19.2338L23.1546 1.35897C24.3009 0.473957 25.7093 -0.00417404 27.1574 2.7455e-05C28.6056 0.00422895 30.0112 0.490523 31.1523 1.38218L54 19.3424L45.3083 24.714L8.69168 24.5684Z" fill="#FF9C00"/>
<path d="M46.3948 5.97992V23.6301L31.5353 31.9991L31.1493 31.6974C30.0081 30.8058 28.6026 30.3195 27.1544 30.3153C25.7062 30.3111 24.2979 30.7892 23.1516 31.6742L22.7814 31.9622L7.60547 23.4846V5.97676C7.60575 5.83279 7.66306 5.69479 7.76487 5.59299C7.86667 5.49119 8.00466 5.43387 8.14863 5.43359H45.8516C45.9956 5.43387 46.1336 5.49119 46.2354 5.59299C46.3372 5.69479 46.3945 5.83279 46.3948 5.97676V5.97992Z" fill="#F5F5F5"/>
<path d="M34.5512 12.5514H19.4481C19.2371 12.5438 19.0372 12.4546 18.8906 12.3026C18.744 12.1507 18.6621 11.9478 18.6621 11.7366C18.6621 11.5255 18.744 11.3226 18.8906 11.1706C19.0372 11.0186 19.2371 10.9295 19.4481 10.9219H34.5512C34.7622 10.9295 34.962 11.0186 35.1086 11.1706C35.2552 11.3226 35.3371 11.5255 35.3371 11.7366C35.3371 11.9478 35.2552 12.1507 35.1086 12.3026C34.962 12.4546 34.7622 12.5438 34.5512 12.5514Z" fill="#114A7A"/>
<path d="M39.4451 23.6373H14.5545C14.3435 23.6297 14.1437 23.5405 13.9971 23.3886C13.8505 23.2366 13.7686 23.0337 13.7686 22.8226C13.7686 22.6114 13.8505 22.4085 13.9971 22.2565C14.1437 22.1046 14.3435 22.0154 14.5545 22.0078H39.4451C39.6561 22.0154 39.856 22.1046 40.0026 22.2565C40.1492 22.4085 40.2311 22.6114 40.2311 22.8226C40.2311 23.0337 40.1492 23.2366 40.0026 23.3886C39.856 23.5405 39.6561 23.6297 39.4451 23.6373Z" fill="#114A7A"/>
<path d="M21.1339 18.0597H14.5653C14.4558 18.0636 14.3467 18.0455 14.2444 18.0063C14.1421 17.9671 14.0488 17.9078 13.97 17.8317C13.8911 17.7557 13.8284 17.6645 13.7856 17.5637C13.7428 17.4629 13.7207 17.3545 13.7207 17.245C13.7207 17.1354 13.7428 17.027 13.7856 16.9262C13.8284 16.8254 13.8911 16.7342 13.97 16.6582C14.0488 16.5822 14.1421 16.5228 14.2444 16.4836C14.3467 16.4444 14.4558 16.4263 14.5653 16.4302H21.1339C21.3449 16.4378 21.5447 16.527 21.6913 16.6789C21.8379 16.8309 21.9198 17.0338 21.9198 17.245C21.9198 17.4561 21.8379 17.659 21.6913 17.811C21.5447 17.963 21.3449 18.0521 21.1339 18.0597Z" fill="#114A7A"/>
<path d="M39.4347 18.0597H25.4696C25.3601 18.0636 25.251 18.0455 25.1487 18.0063C25.0464 17.9671 24.9531 17.9078 24.8742 17.8317C24.7954 17.7557 24.7327 17.6645 24.6899 17.5637C24.6471 17.4629 24.625 17.3545 24.625 17.245C24.625 17.1354 24.6471 17.027 24.6899 16.9262C24.7327 16.8254 24.7954 16.7342 24.8742 16.6582C24.9531 16.5822 25.0464 16.5228 25.1487 16.4836C25.251 16.4444 25.3601 16.4263 25.4696 16.4302H39.4347C39.5442 16.4263 39.6533 16.4444 39.7556 16.4836C39.8579 16.5228 39.9512 16.5822 40.0301 16.6582C40.1089 16.7342 40.1716 16.8254 40.2144 16.9262C40.2572 17.027 40.2793 17.1354 40.2793 17.245C40.2793 17.3545 40.2572 17.4629 40.2144 17.5637C40.1716 17.6645 40.1089 17.7557 40.0301 17.8317C39.9512 17.9078 39.8579 17.9671 39.7556 18.0063C39.6533 18.0455 39.5442 18.0636 39.4347 18.0597Z" fill="#114A7A"/>
<path d="M46.3948 22.6257V24.1708L31.5353 32.5398L31.1493 32.2381C30.0081 31.3465 28.6026 30.8602 27.1544 30.856C25.7062 30.8518 24.2979 31.3299 23.1516 32.2149L22.7814 32.5029L7.60547 24.0253V22.4844L22.6601 29.8081C23.9975 28.9271 25.5651 28.4602 27.1666 28.4656C28.7681 28.471 30.3325 28.9487 31.6639 29.8387L46.3948 22.6257Z" fill="#E6E6E6"/>
<path d="M54.0001 19.3438V48.4616C54.0003 48.5447 53.9908 48.6275 53.9716 48.7084C53.9716 48.7231 53.9653 48.7368 53.9611 48.7516C53.9568 48.7664 53.9505 48.7906 53.9431 48.8096L53.9252 48.8592C53.9252 48.8687 53.9178 48.8782 53.9136 48.8877C53.902 48.913 53.8914 48.9372 53.8788 48.9604C53.8766 48.9657 53.8738 48.9706 53.8704 48.9752C53.8437 49.0265 53.8123 49.0753 53.7765 49.1207C53.7712 49.1292 53.7638 49.1376 53.7564 49.1471L53.748 49.1566C53.7309 49.1777 53.7126 49.1977 53.6932 49.2167C53.6773 49.2346 53.6605 49.2505 53.6425 49.2673L39.9727 40.5271L31.9381 32.3143L31.5342 31.9979L34.2996 30.4401L46.3905 23.6289L54.0001 19.3438Z" fill="#1A6FB7"/>
<path d="M22.7813 31.9602L22.372 32.2766L14.1792 40.5275L0.362815 49.2708C0.344886 49.2529 0.325901 49.236 0.309026 49.217C0.110401 49.0155 -0.000654464 48.7438 2.90177e-06 48.4608V19.2344L7.60535 23.4827L18.4866 29.5598L19.8345 30.3128L22.7813 31.9602Z" fill="#1A6FB7"/>
<path d="M22.7813 31.9599L22.372 32.2763L14.1792 40.5271L0.362815 49.2705C0.344886 49.2526 0.325901 49.2357 0.309026 49.2167C0.110401 49.0152 -0.000654464 48.7435 2.90177e-06 48.4605V48.4194L19.8345 30.3125L22.7813 31.9599Z" fill="#114A7A"/>
<path d="M53.9996 48.422V48.4632C53.9999 48.5463 53.9903 48.6291 53.9711 48.71C53.9711 48.7247 53.9648 48.7384 53.9606 48.7532C53.9564 48.768 53.95 48.7922 53.9427 48.8112L53.9247 48.8608C53.9247 48.8703 53.9173 48.8798 53.9131 48.8893C53.9015 48.9146 53.891 48.9388 53.8783 48.962C53.8761 48.9673 53.8733 48.9722 53.8699 48.9768C53.8432 49.0281 53.8118 49.0769 53.776 49.1223C53.7707 49.1308 53.7634 49.1392 53.756 49.1487L53.7475 49.1582C53.7304 49.1793 53.7121 49.1993 53.6927 49.2183C53.6769 49.2362 53.66 49.2521 53.6421 49.2689L39.8257 40.5256L31.6329 32.2748L31.2236 31.9584L31.3839 31.8698L31.5443 31.9953L34.3096 30.4375L53.9996 48.422Z" fill="#114A7A"/>
<path d="M53.6411 49.2669C53.4421 49.4466 53.1835 49.5458 52.9154 49.5454H1.08598C0.833715 49.5455 0.589336 49.4575 0.395156 49.2965C0.38283 49.2875 0.371196 49.2776 0.360352 49.2669L13.0936 39.4372L22.3748 32.2727L22.7841 31.9563L23.1564 31.6684C24.3024 30.7829 25.7109 30.3044 27.1592 30.3086C28.6075 30.3128 30.0132 30.7994 31.1541 31.6916L31.3798 31.8677L31.5401 31.9933L31.944 32.3097L41.066 39.4362L53.6411 49.2669Z" fill="#1A6FB7"/>
</g>
<defs>
<clipPath id="clip0_3999_45830">
<rect width="54" height="49.5482" fill="white"/>
</clipPath>
</defs>
</svg>
