<svg width="53" height="53" viewBox="0 0 53 53" fill="none" xmlns="http://www.w3.org/2000/svg">
<path d="M32.9059 17.261C37.6724 17.261 41.5364 13.397 41.5364 8.63051C41.5364 3.86401 37.6724 0 32.9059 0C28.1394 0 24.2754 3.86401 24.2754 8.63051C24.2754 13.397 28.1394 17.261 32.9059 17.261Z" fill="#EF7816"/>
<path d="M32.9063 15.4805C36.6892 15.4805 39.7559 12.4138 39.7559 8.63088C39.7559 4.84793 36.6892 1.78125 32.9063 1.78125C29.1233 1.78125 26.0566 4.84793 26.0566 8.63088C26.0566 12.4138 29.1233 15.4805 32.9063 15.4805Z" fill="#FFC91D"/>
<path d="M37.1385 3.24609C38.0558 4.41133 38.6047 5.88035 38.6047 7.47872C38.6047 11.2616 35.538 14.3284 31.7551 14.3284C30.157 14.3284 28.6877 13.7795 27.5225 12.8621C28.7768 14.4552 30.721 15.4791 32.9058 15.4791C36.6888 15.4791 39.7555 12.4124 39.7555 8.62946C39.7555 6.44467 38.7315 4.50039 37.1385 3.24609Z" fill="#FFA91A"/>
<path d="M33.5975 7.82464H33.3664V5.28773H33.5975C34.2969 5.28773 34.8661 5.85665 34.8661 6.55607C34.8661 6.81015 35.0723 7.01636 35.3264 7.01636C35.5804 7.01636 35.7867 6.81015 35.7867 6.55607C35.7867 5.34895 34.8046 4.36714 33.5975 4.36714H33.3664V4.13607C33.3664 3.88199 33.1602 3.67578 32.9061 3.67578C32.6521 3.67578 32.4458 3.88199 32.4458 4.13607V4.36714H32.2145C31.0074 4.36714 30.0254 5.34918 30.0254 6.55607C30.0254 7.76296 31.0074 8.74523 32.2145 8.74523H32.4458V11.9735H32.2145C31.5151 11.9735 30.946 11.4046 30.946 10.7052C30.946 10.4511 30.7398 10.2449 30.4857 10.2449C30.2316 10.2449 30.0254 10.4511 30.0254 10.7052C30.0254 11.9123 31.0074 12.8941 32.2145 12.8941H32.4458V13.1254C32.4458 13.3795 32.6521 13.5857 32.9061 13.5857C33.1602 13.5857 33.3664 13.3795 33.3664 13.1254V12.8941H33.5975C34.8046 12.8941 35.7867 11.912 35.7867 10.7052V10.0138C35.7864 8.80668 34.8046 7.82464 33.5975 7.82464ZM32.2145 7.82464C31.5151 7.82464 30.946 7.25549 30.946 6.55607C30.946 5.85665 31.5151 5.28773 32.2145 5.28773H32.4458V7.82464H32.2145ZM34.8658 10.7052C34.8658 11.4046 34.2967 11.9735 33.5973 11.9735H33.3662V8.74523H33.5973C34.2967 8.74523 34.8658 9.31415 34.8658 10.0136V10.7052Z" fill="#995222"/>
<path d="M48.3372 29.6162L48.9632 29.2141C48.7188 29.0546 48.5211 28.8192 48.4124 28.5243L48.353 28.3628C48.3392 28.3253 48.3293 28.2877 48.319 28.25L47.9277 28.5013L48.3372 29.6162Z" fill="#1A6FB7"/>
<path d="M50.2185 29.3594L51.6079 28.8478C52.2137 28.6248 52.5897 28.0181 52.5204 27.3765L52.4799 27.0032C52.4298 26.539 52.012 26.2039 51.5481 26.2552L49.5184 26.4798C48.6102 26.5804 48.0374 27.5065 48.3532 28.3638L48.4125 28.5254C48.6809 29.2542 49.4896 29.6278 50.2185 29.3594Z" fill="#377DE2"/>
<path d="M18.1767 45.1091C17.1758 45.1091 16.2771 44.6805 15.6465 44V47.028C15.6465 47.7293 16.2149 48.2975 16.916 48.2975H20.7247C21.4259 48.2975 21.9942 47.7291 21.9942 47.028V45.1091H18.1767Z" fill="#414042"/>
<path d="M47.636 45.1093H43.8184V47.0285C43.8184 47.7298 44.3868 48.298 45.0879 48.298H48.8966C49.5978 48.298 50.166 47.7295 50.166 47.0285V44C49.5357 44.6808 48.6369 45.1093 47.636 45.1093Z" fill="#414042"/>
<path d="M18.1768 45.1129L47.6356 45.1124C49.5421 45.1124 51.0878 43.5668 51.0878 41.6602V35.3883C51.0878 34.49 50.825 33.6113 50.3316 32.8606L48.5109 30.0898H17.3016L15.4809 32.8606C14.9874 33.6113 14.7246 34.49 14.7246 35.3883V41.6605C14.7244 43.5672 16.27 45.1129 18.1768 45.1129Z" fill="#377DE2"/>
<path d="M51.0874 35.3883C51.0874 34.49 50.8246 33.6113 50.3311 32.8606L48.5104 30.0898H48.116L49.1806 31.7098C49.6741 32.4606 49.9369 33.3393 49.9369 34.2376V40.5095C49.9369 42.416 48.3912 43.9617 46.4847 43.9617L17.0259 43.9622C16.3677 43.9622 15.7548 43.7746 15.2314 43.4552C15.8377 44.448 16.9281 45.1129 18.1766 45.1129L47.6354 45.1124C49.542 45.1124 51.0876 43.5668 51.0876 41.6602L51.0874 35.3883Z" fill="#1A6FB7"/>
<path d="M37.9643 40.0672H27.8466C27.3242 40.0672 26.8671 39.715 26.7338 39.2099L26.19 37.1473C25.9976 36.4175 26.5479 35.7031 27.3028 35.7031H38.5082C39.2628 35.7031 39.8133 36.4175 39.6209 37.1473L39.0771 39.2099C38.9438 39.715 38.487 40.0672 37.9643 40.0672Z" fill="#414042"/>
<path d="M48.1186 31.442L47.4914 30.3248C47.41 30.1796 47.2565 30.0898 47.0901 30.0898H18.7212C18.5549 30.0898 18.4013 30.1796 18.3199 30.3248L17.6927 31.442C17.3438 32.0634 17.6379 32.8493 18.3091 33.0889L23.094 34.798C23.3424 34.8868 23.6043 34.9321 23.868 34.9321H41.9428C42.2066 34.9321 42.4685 34.8868 42.7168 34.798L47.5018 33.0889C48.1734 32.8493 48.4675 32.0634 48.1186 31.442Z" fill="#1A6FB7"/>
<path d="M42.2699 36.6624C43.1769 35.7667 45.2475 34.3364 49.2599 34.2657C49.4539 34.2622 49.63 34.384 49.6981 34.5658C49.9497 35.2378 50.3573 36.8286 48.7925 37.2634C47.3094 37.6753 44.1155 37.5375 42.5636 37.4387C42.1716 37.4136 41.9905 36.9382 42.2699 36.6624Z" fill="white"/>
<path d="M49.6973 34.5658C49.6292 34.3842 49.4531 34.2622 49.2591 34.2657C49.1261 34.268 49.0007 34.2756 48.8718 34.2809C48.9942 35.0171 48.8891 35.9246 47.7652 36.2369C46.5406 36.5771 44.1515 36.5423 42.4813 36.4643C42.4051 36.5324 42.3333 36.5992 42.2689 36.6627C41.9895 36.9384 42.1708 37.4139 42.5625 37.4387C44.1147 37.5375 47.3084 37.6756 48.7915 37.2634C50.3565 36.8286 49.9489 35.2378 49.6973 34.5658Z" fill="#F1F2F2"/>
<path d="M23.5422 36.6624C22.6352 35.7667 20.5645 34.3364 16.5522 34.2657C16.3581 34.2622 16.1821 34.384 16.114 34.5658C15.8624 35.2378 15.4548 36.8286 17.0196 37.2634C18.5027 37.6753 21.6966 37.5375 23.2485 37.4387C23.6405 37.4136 23.8216 36.9382 23.5422 36.6624Z" fill="white"/>
<path d="M23.5419 36.662C23.3182 36.4411 23.0227 36.1875 22.6454 35.9297C22.6581 36.1624 22.4924 36.3944 22.222 36.4116C20.6699 36.5103 17.4761 36.6484 15.993 36.2362C15.9677 36.2293 15.9472 36.2194 15.9229 36.2118C16.0326 36.6668 16.3396 37.074 17.0193 37.2627C18.5023 37.6747 21.6963 37.5368 23.2482 37.4381C23.6401 37.4132 23.8213 36.9377 23.5419 36.662Z" fill="#F1F2F2"/>
<path d="M41.4354 19.5742H24.3772C22.4472 19.5742 20.7222 20.7781 20.0566 22.5898L17.3018 30.088H48.5111L45.7562 22.5898C45.0904 20.7783 43.3654 19.5742 41.4354 19.5742Z" fill="#377DE2"/>
<path d="M19.0706 28.1045L21.0195 22.8903C21.3557 21.9908 22.2151 21.3945 23.1753 21.3945H42.6376C43.5978 21.3945 44.4572 21.9908 44.7934 22.8903L46.7423 28.1045C46.8548 28.4053 46.6323 28.7259 46.3112 28.7259H19.5017C19.1806 28.7259 18.9581 28.4053 19.0706 28.1045Z" fill="#F1F2F2"/>
<path d="M34.7123 23.237C34.4582 23.237 34.2444 23.0308 34.2444 22.7767C34.2444 22.5226 34.4428 22.3164 34.6971 22.3164H34.7123C34.9664 22.3164 35.1726 22.5226 35.1726 22.7767C35.1726 23.0308 34.9666 23.237 34.7123 23.237ZM32.856 23.237H23.1898C22.9357 23.237 22.7295 23.0308 22.7295 22.7767C22.7295 22.5226 22.9357 22.3164 23.1898 22.3164H32.856C33.11 22.3164 33.3162 22.5226 33.3162 22.7767C33.3162 23.0308 33.11 23.237 32.856 23.237Z" fill="white"/>
<path d="M46.7423 28.1063L44.7934 22.8921C44.4758 22.0422 43.691 21.4638 42.7953 21.4023L44.4406 25.8048C44.5531 26.1056 44.3306 26.4262 44.0095 26.4262H19.6984L19.0706 28.1063C18.9581 28.4071 19.1806 28.7277 19.5017 28.7277H46.311C46.6323 28.7277 46.8546 28.4071 46.7423 28.1063Z" fill="#E6E7E8"/>
<path d="M46.7423 28.1062L44.7934 22.892C44.5741 22.3054 44.1315 21.849 43.5842 21.6016C43.6049 21.6474 43.625 21.6936 43.6427 21.7413L45.5916 26.9555C45.7041 27.2563 45.4816 27.5769 45.1605 27.5769H19.2685L19.0706 28.1062C18.9581 28.407 19.1806 28.7276 19.5017 28.7276H46.311C46.6323 28.7276 46.8546 28.407 46.7423 28.1062Z" fill="#D1D3D4"/>
<path d="M44.1032 43.2664H21.7092C21.3198 43.2664 21.1065 42.8131 21.3543 42.5129L21.9978 41.7341C22.2164 41.4695 22.5416 41.3164 22.885 41.3164H42.9276C43.2707 41.3164 43.5962 41.4697 43.8148 41.7341L44.4583 42.5129C44.7059 42.8133 44.4924 43.2664 44.1032 43.2664Z" fill="#414042"/>
<path d="M47.0383 43.6293C47.7751 43.6293 48.3724 43.0319 48.3724 42.2951C48.3724 41.5583 47.7751 40.9609 47.0383 40.9609C46.3014 40.9609 45.7041 41.5583 45.7041 42.2951C45.7041 43.0319 46.3014 43.6293 47.0383 43.6293Z" fill="#D1D3D4"/>
<path d="M47.0388 43.1088C47.4873 43.1088 47.8509 42.7451 47.8509 42.2966C47.8509 41.848 47.4873 41.4844 47.0388 41.4844C46.5902 41.4844 46.2266 41.848 46.2266 42.2966C46.2266 42.7451 46.5902 43.1088 47.0388 43.1088Z" fill="white"/>
<path d="M10.391 20.8274C10.1369 20.8274 9.93066 20.6212 9.93066 20.3671V13.0892C9.93066 12.8351 10.1369 12.6289 10.391 12.6289C10.645 12.6289 10.8513 12.8351 10.8513 13.0892V20.3671C10.8513 20.6214 10.645 20.8274 10.391 20.8274Z" fill="#AA6800"/>
<path d="M5.78841 20.8268C5.61465 20.8268 5.44802 20.7278 5.37047 20.5596L3.069 15.5831C2.96221 15.3525 3.06301 15.0788 3.29362 14.9721C3.52492 14.866 3.7981 14.9658 3.90466 15.1967L6.20613 20.1731C6.31292 20.4038 6.21211 20.6774 5.98151 20.7842C5.91868 20.813 5.85308 20.8268 5.78841 20.8268Z" fill="#AA6800"/>
<path d="M14.9934 20.8268C14.9288 20.8268 14.8632 20.813 14.8004 20.7842C14.5697 20.6774 14.4692 20.404 14.5757 20.1731L16.8772 15.1967C16.984 14.9658 17.2576 14.866 17.4882 14.9721C17.7188 15.0788 17.8194 15.3523 17.7129 15.5831L15.4114 20.5596C15.3336 20.7276 15.167 20.8268 14.9934 20.8268Z" fill="#AA6800"/>
<path d="M0.248059 9.35647L0.434708 10.226C0.630793 11.1394 1.34448 11.8529 2.25793 12.0492L3.12743 12.2358C3.33709 12.2809 3.33709 12.5799 3.12743 12.625L2.25793 12.8117C1.34448 13.0077 0.631023 13.7214 0.434708 14.6349L0.248059 15.5044C0.20295 15.714 -0.0960102 15.714 -0.141119 15.5044L-0.327768 14.6349C-0.523853 13.7214 -1.23754 13.008 -2.15099 12.8117L-3.02049 12.625C-3.23015 12.5799 -3.23015 12.2809 -3.02049 12.2358L-2.15099 12.0492C-1.23754 11.8531 -0.524084 11.1394 -0.327768 10.226L-0.141119 9.35647C-0.0962403 9.1468 0.20295 9.1468 0.248059 9.35647Z" fill="#FFC91D"/>
<path d="M21.4817 11.7217L21.6152 12.3434C21.7554 12.9965 22.2658 13.5068 22.919 13.6472L23.5406 13.7806C23.6905 13.8129 23.6905 14.0267 23.5406 14.0589L22.919 14.1924C22.2658 14.3325 21.7556 14.843 21.6152 15.4962L21.4817 16.1178C21.4495 16.2676 21.2357 16.2676 21.2035 16.1178L21.07 15.4962C20.9298 14.843 20.4194 14.3328 19.7662 14.1924L19.1446 14.0589C18.9948 14.0267 18.9948 13.8129 19.1446 13.7806L19.7662 13.6472C20.4194 13.507 20.9296 12.9965 21.07 12.3434L21.2035 11.7217C21.2355 11.5719 21.4495 11.5719 21.4817 11.7217Z" fill="#FFC91D"/>
<path d="M26.7092 37.4079C25.7911 36.4899 24.3025 36.4896 23.3842 37.4077L25.1543 35.6376C26.0726 34.7194 26.0726 33.2308 25.1543 32.3127C24.236 31.3944 22.7474 31.3944 21.8294 32.3127L19.7148 34.4271L23.4917 30.6501C24.41 29.7318 24.41 28.2433 23.4917 27.3252C22.5734 26.4069 21.0849 26.4069 20.1668 27.3252L16.3899 31.1021L25.5292 21.9628C26.4475 21.0445 26.4475 19.5559 25.5292 18.6378C24.6109 17.7198 23.1223 17.7196 22.2043 18.6378L10.1022 30.7399L12.3768 25.3685C12.9061 24.1186 12.3066 22.6776 11.047 22.1718C9.84632 21.6896 8.47833 22.2346 7.93863 23.4106L4.87722 30.0778C3.88598 32.2365 3.27057 34.5484 3.05699 36.9143L2.6639 41.2682L0.477733 43.4544C0.0282558 43.9038 0.0282558 44.6322 0.477733 45.0817L7.95198 52.5562C8.40146 53.0057 9.1301 53.0057 9.57935 52.5562L12.2817 49.8538C16.4865 49.1035 19.7316 47.7107 22.7518 44.6905L23.401 44.0412C23.401 44.0412 23.401 44.0412 23.4013 44.041L26.7094 40.7329C27.6275 39.8148 27.6275 38.326 26.7092 37.4079Z" fill="#FFDEAA"/>
<path d="M24.9444 21.4876L24.2167 22.2153C24.0369 22.395 23.7456 22.395 23.5658 22.2153L21.9532 20.6024C21.7734 20.4227 21.7734 20.1313 21.9532 19.9515L22.6809 19.2238C23.1304 18.7743 23.8588 18.7743 24.3083 19.2238L24.9446 19.8602C25.3936 20.3094 25.3936 21.0381 24.9444 21.4876Z" fill="#FF9C00"/>
<path d="M11.6316 25.0566L11.2201 26C11.1184 26.2329 10.8472 26.3394 10.6141 26.2379L8.52346 25.3263C8.29055 25.2246 8.18399 24.9535 8.28548 24.7204L8.69699 23.777C8.95107 23.1945 9.62931 22.9282 10.2118 23.1821L11.0367 23.5418C11.6194 23.7959 11.8857 24.4741 11.6316 25.0566Z" fill="#FF9C00"/>
<path d="M27.3108 38.4414C27.2061 38.82 27.0065 39.1776 26.709 39.4752L23.4008 42.7834L22.7516 43.4326C19.7314 46.4528 16.4865 47.8457 12.2815 48.5959L9.39431 51.4831C9.04702 51.8304 8.48385 51.8304 8.13679 51.4831L0.292695 43.639C-0.0545963 43.9863 -0.0545963 44.5493 0.292695 44.8966L8.13679 52.7407C8.48408 53.088 9.04702 53.088 9.39431 52.7407L12.2815 49.8535C16.4863 49.1032 19.7311 47.7103 22.7516 44.6901L23.4008 44.0409L26.709 40.7328C27.3297 40.112 27.5292 39.231 27.3108 38.4414Z" fill="#FF9C00"/>
</svg>
