<svg width="54" height="54" viewBox="0 0 54 54" fill="none" xmlns="http://www.w3.org/2000/svg">
<g clipPath="url(#clip0_3999_45931)">
<path d="M41.7995 16.2669C41.7995 23.2163 36.1655 28.8503 29.2161 28.8503C22.2663 28.8503 16.6328 23.2163 16.6328 16.2669C16.6328 9.31711 22.2663 3.68359 29.2161 3.68359C36.1655 3.68359 41.7995 9.31711 41.7995 16.2669Z" fill="#FFDEAA"/>
<path d="M29.2163 30.4517C21.3959 30.4517 15.0332 24.0894 15.0332 16.269C15.0332 8.44826 21.3959 2.08594 29.2163 2.08594C37.0366 2.08594 43.3989 8.44826 43.3989 16.269C43.3989 24.0894 37.0366 30.4517 29.2163 30.4517ZM29.2163 5.28502C23.1597 5.28502 18.2323 10.2124 18.2323 16.269C18.2323 22.3252 23.1597 27.2526 29.2163 27.2526C35.2725 27.2526 40.1999 22.3252 40.1999 16.269C40.1999 10.2124 35.2725 5.28502 29.2163 5.28502Z" fill="#FF9C00"/>
<path d="M30.2168 14.8676H27.5047C27.1937 14.8676 26.9403 14.6147 26.9403 14.3032C26.9403 13.9922 27.1937 13.7388 27.5047 13.7388H32.381C33.2643 13.7388 33.9807 13.0228 33.9807 12.1395C33.9807 11.2557 33.2643 10.5397 32.381 10.5397H30.888V9.7009C30.888 8.8176 30.1719 8.10156 29.2886 8.10156C28.4053 8.10156 27.6889 8.8176 27.6889 9.7009V10.5397H27.5047C25.4295 10.5397 23.7412 12.228 23.7412 14.3032C23.7412 16.3784 25.4295 18.0667 27.5047 18.0667H30.2168C30.5283 18.0667 30.7817 18.3201 30.7817 18.6311C30.7817 18.9426 30.5283 19.1956 30.2168 19.1956H25.3784C24.4951 19.1956 23.7791 19.912 23.7791 20.7953C23.7791 21.6786 24.4951 22.3951 25.3784 22.3951H27.6889V23.2334C27.6889 24.1172 28.4053 24.8332 29.2886 24.8332C30.1719 24.8332 30.888 24.1172 30.888 23.2334V22.3337C32.6443 22.0164 33.9807 20.4772 33.9807 18.6311C33.9807 16.556 32.2924 14.8676 30.2168 14.8676Z" fill="#FF9C00"/>
<path d="M12.636 12.1399C12.636 13.0228 11.9208 13.7393 11.0367 13.7393H9.95647V14.8195C9.95647 15.7036 9.23961 16.4192 8.35672 16.4192C7.4726 16.4192 6.75739 15.7036 6.75739 14.8195V13.7393H5.67592C4.79303 13.7393 4.07617 13.0228 4.07617 12.1399C4.07617 11.2558 4.79303 10.5402 5.67592 10.5402H6.75739V9.45871C6.75739 8.57582 7.4726 7.85938 8.35672 7.85938C9.23961 7.85938 9.95647 8.57582 9.95647 9.45871V10.5402H11.0367C11.9208 10.5402 12.636 11.2558 12.636 12.1399Z" fill="#FFBD55"/>
<path d="M52.2571 29.3118C52.2571 30.1947 51.5415 30.9111 50.6578 30.9111H49.5776V31.9914C49.5776 32.8755 48.8607 33.5911 47.9778 33.5911C47.0937 33.5911 46.3785 32.8755 46.3785 31.9914V30.9111H45.297C44.4129 30.9111 43.6973 30.1947 43.6973 29.3118C43.6973 28.4277 44.4129 27.7121 45.297 27.7121H46.3785V26.631C46.3785 25.7477 47.0937 25.0312 47.9778 25.0312C48.8607 25.0312 49.5776 25.7477 49.5776 26.631V27.7121H50.6578C51.5415 27.7121 52.2571 28.4277 52.2571 29.3118Z" fill="#FFBD55"/>
<path d="M51.6456 5.01883C51.6456 5.90172 50.9292 6.61817 50.0463 6.61817H48.9648V7.69963C48.9648 8.58252 48.2484 9.29938 47.3651 9.29938C46.4822 9.29938 45.7658 8.58252 45.7658 7.69963V6.61817H44.6843C43.8014 6.61817 43.085 5.90172 43.085 5.01883C43.085 4.13594 43.8014 3.41908 44.6843 3.41908H45.7658V2.33803C45.7658 1.45473 46.4822 0.738281 47.3651 0.738281C48.2484 0.738281 48.9648 1.45473 48.9648 2.33803V3.41908H50.0463C50.9292 3.41908 51.6456 4.13594 51.6456 5.01883Z" fill="#FFBD55"/>
<path d="M11.3527 37.756V51.8526C11.3527 52.7363 10.6363 53.4519 9.75298 53.4519H1.59975C0.716446 53.4519 0 52.7363 0 51.8526V37.756C0 36.8731 0.716446 36.1562 1.59975 36.1562H9.75298C10.6363 36.1562 11.3527 36.8731 11.3527 37.756Z" fill="#1A6FB7"/>
<path d="M11.3527 44.8047V51.8526C11.3527 52.7363 10.6363 53.4519 9.75298 53.4519H1.59975C0.716446 53.4519 0 52.7363 0 51.8526V44.8047H11.3527Z" fill="#1A6FB7"/>
<path d="M51.7692 45.3485L42.031 51.0219C39.2959 52.6151 36.1779 53.4572 33.0126 53.4572H8.15332V37.7592C8.15332 34.1016 10.9899 31.6445 15.2127 31.6445H17.7296C20.597 31.6445 22.8085 32.6885 23.9559 34.5857C24.3366 35.2148 24.9776 35.5901 25.6686 35.5901H30.9984C34.3256 35.5901 36.6641 38.8811 35.5933 42.0044C35.5925 42.0056 35.5925 42.0056 35.5925 42.0064V42.0077C39.3428 41.566 39.3585 40.8928 47.6959 37.3827C49.5383 36.5637 51.681 37.1021 52.9392 38.591C53.1374 38.8246 53.3133 39.0813 53.4629 39.3598C54.6082 41.498 53.865 44.1277 51.7692 45.3485Z" fill="#FFDEAA"/>
<path d="M29.2158 2.08594V5.28543C35.2729 5.28543 40.1994 10.212 40.1994 16.269C40.1994 22.3248 35.2729 27.2526 29.2158 27.2526V30.4517C37.0366 30.4517 43.3989 24.0898 43.3989 16.269C43.3989 8.44785 37.0366 2.08594 29.2158 2.08594Z" fill="#FF9C00"/>
<path d="M30.2174 14.8711H29.2158V18.0702H30.2174C30.5276 18.0702 30.7814 18.3231 30.7814 18.6346C30.7814 18.9461 30.5276 19.1986 30.2174 19.1986H29.2158V24.8346C29.2393 24.8354 29.2636 24.8367 29.2883 24.8367C30.1712 24.8367 30.8881 24.1198 30.8881 23.2369V22.3371C32.6444 22.0191 33.9805 20.4803 33.9805 18.6346C33.9805 16.5594 32.2925 14.8711 30.2174 14.8711Z" fill="#FF9C00"/>
<path d="M32.3807 13.7396H29.2158V8.10403C29.2393 8.1028 29.2636 8.10156 29.2883 8.10156C30.1712 8.10156 30.8881 8.81842 30.8881 9.70131V10.5405H32.3807C33.264 10.5405 33.9805 11.2561 33.9805 12.1403C33.9805 13.0232 33.264 13.7396 32.3807 13.7396Z" fill="#FF9C00"/>
<path d="M12.6367 12.1399C12.6367 13.0228 11.9215 13.7393 11.0374 13.7393H9.95717V14.8195C9.95717 15.7036 9.24031 16.4192 8.35742 16.4192V7.85938C9.24031 7.85938 9.95717 8.57582 9.95717 9.45871V10.5402H11.0374C11.9215 10.5402 12.6367 11.2558 12.6367 12.1399Z" fill="#FF9C00"/>
<path d="M51.6458 5.01883C51.6458 5.90172 50.9293 6.61817 50.0464 6.61817H48.965V7.69963C48.965 8.58252 48.2485 9.29938 47.3652 9.29938V0.738281C48.2485 0.738281 48.965 1.45473 48.965 2.33803V3.41908H50.0464C50.9293 3.41908 51.6458 4.13594 51.6458 5.01883Z" fill="#FF9C00"/>
<path d="M52.2569 29.3118C52.2569 30.1947 51.5412 30.9111 50.6575 30.9111H49.5773V31.9914C49.5773 32.8755 48.8604 33.5911 47.9775 33.5911V25.0312C48.8604 25.0312 49.5773 25.7477 49.5773 26.631V27.7121H50.6575C51.5412 27.7121 52.2569 28.4277 52.2569 29.3118Z" fill="#FF9C00"/>
<path d="M52.8315 38.4695L49.0099 40.2991C49.0046 40.3016 48.9992 40.3045 48.9939 40.3065L41.2304 43.7544C38.9261 44.7782 36.4798 45.2965 33.9588 45.2965H21.8884C21.0055 45.2965 20.2891 44.5809 20.2891 43.6968C20.2891 42.8139 21.0055 42.097 21.8884 42.097C23.8412 42.097 25.5279 42.1048 26.9975 42.1131C39.9198 42.1889 36.0031 42.3051 47.6961 37.3826C49.4874 36.5863 51.5618 37.0732 52.8315 38.4695Z" fill="#FFBD55"/>
<path d="M52.8312 38.4695L49.0096 40.2991C49.0042 40.3016 48.9988 40.3045 48.9935 40.3065L41.23 43.7544C38.9258 44.7782 36.4794 45.2965 33.9584 45.2965H26.9971V42.1131C39.9195 42.1889 36.0027 42.3051 47.6957 37.3826C49.487 36.5863 51.5614 37.0732 52.8312 38.4695Z" fill="#FF9C00"/>
</g>
<defs>
<clipPath id="clip0_3999_45931">
<rect width="54" height="54" fill="white"/>
</clipPath>
</defs>
</svg>
